<?xml version="1.0" encoding="utf-8"?>
<!-- Generator: Adobe Illustrator 21.0.2, SVG Export Plug-In . SVG Version: 6.00 Build 0)  -->
<svg version="1.1" id="Livello_1" xmlns="http://www.w3.org/2000/svg" xmlns:xlink="http://www.w3.org/1999/xlink" x="0px" y="0px"
	 viewBox="0 0 50 50" style="enable-background:new 0 0 50 50;" xml:space="preserve">
<g>
	<path d="M44.6,0.3H5.4c-2.9,0-5.2,2.5-5.2,5.5v22v3.6v5c0,3.1,2.3,5.5,5.2,5.5h13.4v5.5h-6.4v2.4h6.4h2.2h7.6h2.2H37v-2.4h-6.1
		v-5.5h13.7c2.9,0,5.2-2.5,5.2-5.5v-5v-3.6v-22C49.8,2.7,47.4,0.3,44.6,0.3z M28.7,47.4h-7.6v-5.5h7.6V47.4z M46.4,36.4
		c0,1.1-0.8,1.9-1.8,1.9H30.9h-2.2h-7.6h-2.2H5.4c-1,0-1.8-0.9-1.8-1.9v-5h42.8V36.4z M46.4,27.8H3.6v-22c0-1.1,0.8-1.9,1.8-1.9
		h39.1c1,0,1.8,0.9,1.8,1.9V27.8z"/>
	<rect x="22" y="7.2" width="6" height="3.2"/>
</g>
</svg>
