<?xml version="1.0" encoding="utf-8"?>
<!-- Generator: Adobe Illustrator 21.0.2, SVG Export Plug-In . SVG Version: 6.00 Build 0)  -->
<svg version="1.1" id="Livello_1" xmlns="http://www.w3.org/2000/svg" xmlns:xlink="http://www.w3.org/1999/xlink" x="0px" y="0px"
	 viewBox="0 0 250 65.7" style="enable-background:new 0 0 250 65.7;" xml:space="preserve">
<style type="text/css">
	.st0{fill:#FFFFFF;}
</style>
<path class="st0" d="M116,54.5c0-2.7,0-5.5,0-8.2c0-0.6-0.1-1.3,0.9-1.3c5.4,0.1,10.8-0.4,16.1,0.3c3.6,0.5,5.1,2.5,5.2,6.3
	c0,3.6-0.1,7.2,0,10.8c0,1.4-0.5,1.6-1.6,1.6c-1.3,0-1.4-0.6-1.4-1.7c0-3.3,0-6.6,0-9.9c0-2.8-1.1-4.1-3.7-4.5
	c-3.8-0.6-7.6,0.1-11.3-0.1c-1.2-0.1-1,0.8-1,1.5c0,4.3-0.1,8.6,0,12.9c0,1.4-0.4,1.8-1.7,1.8c-1.3,0-1.5-0.5-1.5-1.7
	C116.1,59.8,116,57.1,116,54.5z M76.5,47.7c0.9,0,1.4-0.2,1.4-1.3c0-1.1-0.5-1.3-1.4-1.3c-2.6,0-5.2,0-7.8,0c-2.7,0-2.7,0-2.8-3
	c0-0.5,0.3-1.3-0.6-1.5c-1.7-0.5-2.5,0.1-2.6,2c0,2.5,0,2.4-2.3,2.5c-0.7,0-1.5-0.3-1.6,0.9c-0.1,1.3,0.3,1.7,1.6,1.7
	c2.5-0.1,2.3-0.5,2.3,2.5c0,2.6,0,5.2,0,7.9c0.1,3.9,1.6,5.6,5.3,6.2c2.6,0.4,5.2,0.1,7.8,0.2c1,0,1.4-0.3,1.4-1.4
	c0-1.2-0.5-1.3-1.4-1.3c-2,0-3.9,0.1-5.9,0c-3-0.1-4-1.3-4.1-4.4c0-2.7,0-5.5,0-8.2c0-1.2,0.4-1.5,1.4-1.4c1.5,0.1,3.1,0,4.6,0
	C73.4,47.6,75,47.6,76.5,47.7z M193.2,47.7c0.9,0,1.4,0,1.4-1.2c0-1.3-0.5-1.4-1.5-1.4c-2.6,0-5.2,0-7.8,0c-2.7,0-2.8,0-2.7-2.8
	c0-1.3-0.3-1.7-1.6-1.7c-1.4,0-1.5,0.7-1.5,1.8c0,2.6,0,2.7-2.5,2.7c-1.3,0-1.4,0.6-1.4,1.7c0.1,1.3,0.9,0.9,1.6,0.9
	c2.4,0,2.4-0.4,2.4,2.6c0,2.8,0,5.6,0,8.4c0.1,3.3,1.6,5,4.7,5.5c2.8,0.5,5.6,0.1,8.3,0.3c1,0.1,1.3-0.3,1.3-1.4
	c0-1.1-0.4-1.4-1.4-1.3c-1.9,0.1-3.8,0.1-5.7,0c-3.1-0.1-4.2-1.2-4.3-4.4c-0.1-2.8,0-5.6,0-8.4c0-1,0.4-1.3,1.3-1.2
	c1.6,0,3.2,0,4.8,0C190.1,47.6,191.7,47.6,193.2,47.7z M13.3,45c-2.3,0-4.5-0.1-6.8,0c-4,0.3-6,2.5-6.2,6.7c-0.1,2.1-0.1,4.2,0,6.4
	c0.2,3.4,2.2,5.7,5.4,6.1c4.8,0.6,9.7,0.1,14.6,0.3c0.7,0,1-0.3,1.1-1.1c0.1-1.2-0.2-1.6-1.5-1.6c-4.2,0-8.4,0.3-12.6-0.2
	c-2.6-0.3-3.9-1.8-4-4.6c-0.1-1.1,0-2.1,0-3.2c0-5,1.2-6.3,6-6.4c0.4,0,0.7,0,1.1,0c3,0,5.9,0,8.9,0c0.8,0,1.8,0.5,1.9-1.2
	c0-1.8-1.1-1.2-2-1.3C17.2,44.8,15.3,44.9,13.3,45C13.3,44.9,13.3,44.9,13.3,45z M51.5,64.1c-5.9,0.1-11.8,0.7-17.7,0
	c-2.6-0.3-3.7-1.7-3.9-4.4c-0.3-5.6,0.7-6.9,6.1-7.1c3.2-0.2,6.4-0.2,9.6,0.1c1.3,0.1,2.5,0.5,3.7,1.9c0-1.7,0.1-2.9,0-4.1
	c-0.1-1.7-1.3-2.6-3.4-2.8c-4.6-0.5-9.2-0.2-13.8-0.2c-0.9,0-1.6,0-1.5-1.4c0.1-0.8,0.3-1.1,1-1.1c5.2,0.1,10.3-0.1,15.5,0.2
	c3.9,0.2,5.5,2.4,5.5,6.6c0,3.7,0,7.4,0,11C52.3,63.3,52.6,64.1,51.5,64.1z M49.2,58.4c0-1.8-0.8-2.6-2.3-2.9
	c-2-0.4-4.1-0.3-6.5-0.3c-1.7,0.1-3.7-0.2-5.7,0.3c-1.7,0.5-2,1.7-1.9,3.3c0,1.5,0.7,2.5,2.1,2.7c4,0.5,8,0.4,12-0.1
	C48.4,61.1,49.3,60.2,49.2,58.4z M168.3,64.1c-5.9,0.1-11.8,0.7-17.7,0.1c-2.7-0.3-3.9-1.9-4-4.8c0-0.7,0-1.4,0-2.1
	c0-2.6,1-4,3.4-4.4c4.1-0.7,8.1-0.5,12.2-0.2c1.3,0.1,2.6,0.4,3.5,1.7c0.1-0.1,0.2-0.2,0.4-0.2c0-0.7,0-1.5,0-2.2
	c0-3.1-1-4.1-3.9-4.3c-4.4-0.4-8.8-0.1-13.1-0.2c-0.8,0-1.8,0.3-1.8-1.3c0-1.5,0.9-1.2,1.7-1.2c4.6,0,9.2-0.1,13.9,0.1
	c4.5,0.2,6.3,2.2,6.3,6.9c0,3.6,0,7.2,0,10.8C169,63.3,169.2,64,168.3,64.1z M166.1,58.4c0-1.5-0.7-2.6-2.1-2.8
	c-4.1-0.7-8.2-0.6-12.3-0.1c-1.7,0.2-2.1,1.6-2.1,3.1c0,1.7,0.7,2.7,2.4,2.9c1.7,0.3,3.4,0.2,5.6,0.2c1.8,0,4.2,0,6.5-0.5
	C165.5,60.9,166.1,59.9,166.1,58.4z M107.8,54.3c0,1-0.7,0.8-1.3,0.8c-3,0-5.9,0-8.9,0c-2.8,0-5.7,0-8.5,0c-1,0-1.3,0.3-1.3,1.4
	c0.1,3.1,1.3,4.6,4.2,5c4.5,0.6,9.1,0.1,13.7,0.3c0.9,0,1.8-0.2,1.7,1.3c0,1.5-0.9,1.4-1.8,1.3c-5-0.1-9.9,0.3-14.9-0.3
	c-3.5-0.4-5.4-2.2-5.9-5.8c-0.4-2.6-0.4-5.2,0-7.8c0.6-3.3,2.4-5.2,5.6-5.5c3.7-0.3,7.4-0.4,11,0C106.5,45.6,108,48.9,107.8,54.3z
	 M104.7,51c-0.2-1.7-1.7-3-3.9-3.3c-3.1-0.4-6.2-0.4-9.4,0c-2.1,0.3-3.2,1.4-3.5,3.6c-0.1,0.9,0.1,1.4,1.1,1.3c2.4-0.1,4.8,0,7.3,0
	c2.4,0,4.7-0.1,7.1,0C104.6,52.5,104.8,52,104.7,51z M224.5,54.3c-0.2,1-0.7,0.8-1.3,0.8c-2.9,0-5.8,0-8.7,0c-2.9,0-5.8,0-8.7,0
	c-0.9,0-1.2,0.3-1.2,1.3c-0.1,3,1.3,4.7,4.1,5.1c4.7,0.6,9.3,0.2,14,0.2c1.2,0,1.5,0.5,1.5,1.6c0,0.8-0.3,1.1-1.1,1.1
	c-5.3-0.2-10.7,0.3-16-0.3c-3.2-0.4-5.1-2.5-5.5-5.8c-0.3-2.4-0.3-4.8,0-7.3c0.4-3.5,2.2-5.7,5.5-6c3.8-0.3,7.6-0.4,11.4,0
	C222.9,45.5,225.4,49.5,224.5,54.3z M221.5,51c-0.3-1.9-1.7-3.1-4.1-3.4c-3-0.4-6-0.4-9,0c-2.2,0.3-3.1,1.1-3.6,3.3
	c-0.3,1.3,0.1,1.6,1.2,1.6c2.3-0.1,4.6,0,6.9,0c2.5,0,5-0.1,7.4,0C221.5,52.5,221.6,52,221.5,51z M223.9,5.5
	c-2.7-2.8-6.4-4.6-10.7-4.6c-8.1,0-14.6,6.5-14.6,14.6s6.5,14.6,14.6,14.6c4.2,0,8-1.8,10.7-4.6c-2.4-2.6-3.9-6.1-3.9-10
	S221.5,8.1,223.9,5.5z M235.7,0.9c-4.1,0-7.8,1.8-10.4,4.6c-2.4,2.6-3.9,6.1-3.9,10s1.5,7.4,3.9,10c2.6,2.8,6.3,4.6,10.4,4.6
	c7.9,0,14.3-6.5,14.3-14.6S243.6,0.9,235.7,0.9z M173.9,0.9c-4.1,0-7.8,1.8-10.4,4.6c-2.4,2.6-3.9,6.1-3.9,10s1.5,7.4,3.9,10
	c2.6,2.8,6.3,4.6,10.4,4.6c7.9,0,14.3-6.5,14.3-14.6S181.8,0.9,173.9,0.9z M97,0.9c-4.1,0-7.8,1.8-10.4,4.6c-2.4,2.6-3.9,6.1-3.9,10
	s1.5,7.4,3.9,10c2.6,2.8,6.3,4.6,10.4,4.6c7.9,0,14.3-6.5,14.3-14.6S104.9,0.9,97,0.9z"/>
</svg>
