<?xml version="1.0" encoding="utf-8"?>
<!-- Generator: Adobe Illustrator 21.0.2, SVG Export Plug-In . SVG Version: 6.00 Build 0)  -->
<svg version="1.1" id="Livello_1" xmlns="http://www.w3.org/2000/svg" xmlns:xlink="http://www.w3.org/1999/xlink" x="0px" y="0px"
	 viewBox="0 0 568.4 154" style="enable-background:new 0 0 568.4 154;" xml:space="preserve">
<style type="text/css">
	.st0{fill:none;}
	.st1{fill:#3C5564;}
	.st2{fill:url(#SVGID_1_);}
</style>
<g>
	<path class="st0" d="M180.7,99.4c-2.7,1.4-5.3,2.8-7.8,4.4c-2.5,1.6-4.7,3.3-6.5,5.1c-1.9,1.8-3.4,3.7-4.5,5.7
		c-1.1,2-1.6,4.1-1.6,6.3c0,2.3,0.4,4.4,1.3,6.5c0.8,2.1,1.9,3.9,3.3,5.4c1.4,1.5,3,2.8,4.8,3.6c1.8,0.9,3.7,1.3,5.7,1.3
		c2.1,0,4-0.3,5.9-0.8c1.9-0.5,3.7-1.3,5.4-2.2c1.8-0.9,3.5-2,5.3-3.3c1.8-1.2,3.6-2.6,5.4-4V92.7c-2.7,0.9-5.4,1.9-8.3,3
		C186.2,96.8,183.5,98,180.7,99.4z"/>
	<path class="st0" d="M437,95.7c-2.9,1.1-5.6,2.3-8.4,3.7c-2.7,1.4-5.3,2.8-7.8,4.4c-2.5,1.6-4.7,3.3-6.5,5.1
		c-1.9,1.8-3.4,3.7-4.5,5.7s-1.6,4.1-1.6,6.3c0,2.3,0.4,4.4,1.3,6.5c0.8,2.1,1.9,3.9,3.3,5.4c1.4,1.5,3,2.8,4.8,3.6
		c1.8,0.9,3.7,1.3,5.7,1.3c2.1,0,4-0.3,5.9-0.8s3.7-1.3,5.4-2.2c1.8-0.9,3.5-2,5.3-3.3c1.8-1.2,3.6-2.6,5.4-4V92.7h0
		C442.6,93.6,439.9,94.6,437,95.7z"/>
	<polygon class="st1" points="3.9,147.1 87.6,147.1 87.6,139.3 24.2,139.3 24.2,85 66.6,85 66.6,77.2 24.2,77.2 24.2,33.9 
		87.6,33.9 87.6,26.1 3.9,26.1 	"/>
	<polygon class="st1" points="106.6,11.3 106.6,147 125,147 125,6 119.7,6 	"/>
	<path class="st1" d="M208.5,58.5c-2.6-2.1-6-3.8-10.2-5s-9.4-1.8-15.5-1.8c-5,0-9.7,0.6-14.3,1.7c-4.5,1.1-8.5,2.7-11.9,4.6
		c-3.4,1.9-6.1,4.2-8.1,6.9s-3,5.5-3,8.6c0,1.5,0.2,3,0.7,4.3c0.5,1.4,1.1,2.5,2,3.5c0.9,1,1.9,1.8,3.1,2.3c1.1,0.5,2.5,0.8,3.9,0.8
		c1.8,0,3.3-0.3,4.5-1s2.1-1.6,2.8-2.7c0.7-1.2,1.1-2.5,1.4-4s0.4-3.1,0.4-4.7c0-1.8,0.2-3.5,0.6-5.2c0.4-1.7,1.2-3.3,2.3-4.6
		c1.1-1.3,2.6-2.4,4.6-3.2c2-0.8,4.5-1.2,7.6-1.2c2.8,0,5.3,0.4,7.5,1.2c2.3,0.8,4.1,2.1,5.7,3.9c1.6,1.8,2.8,4.2,3.6,7.1
		c0.9,2.9,1.3,6.5,1.3,10.7v5.8c-4.1,1.1-8.4,2.2-12.7,3.4c-4.4,1.2-8.6,2.6-12.7,4.2c-4.1,1.6-7.9,3.3-11.6,5.3s-6.9,4.3-9.6,6.8
		c-2.8,2.5-4.9,5.4-6.5,8.6c-1.6,3.2-2.4,6.8-2.4,10.8c0,3.3,0.5,6.4,1.6,9.2c1.1,2.9,2.7,5.3,4.8,7.4c2.1,2.1,4.6,3.7,7.5,4.9
		c3,1.2,6.3,1.8,9.9,1.8c3.9,0,7.3-0.4,10.3-1.3c2.9-0.9,5.7-2.1,8.1-3.5c2.4-1.5,4.7-3.1,6.8-4.8c2.1-1.7,4.2-3.4,6.4-5.1V147h18.4
		V76.5c0-3.7-0.5-7.1-1.7-10.2C213,63.2,211.1,60.6,208.5,58.5z M197.4,92.7v34.7c-1.8,1.4-3.6,2.8-5.4,4c-1.8,1.3-3.5,2.4-5.3,3.3
		c-1.7,0.9-3.5,1.7-5.4,2.2c-1.9,0.5-3.8,0.8-5.9,0.8c-2,0-3.9-0.4-5.7-1.3c-1.8-0.8-3.4-2.1-4.8-3.6c-1.4-1.5-2.5-3.3-3.3-5.4
		c-0.9-2.1-1.3-4.2-1.3-6.5c0-2.2,0.5-4.3,1.6-6.3c1.1-2,2.6-3.9,4.5-5.7c1.8-1.8,4-3.5,6.5-5.1c2.5-1.6,5.1-3,7.8-4.4
		c2.8-1.4,5.5-2.6,8.4-3.7C192,94.6,194.7,93.6,197.4,92.7L197.4,92.7L197.4,92.7z"/>
	<path class="st1" d="M330.6,103.1c-2.5-2.3-5.4-4.2-8.6-5.9c-3.2-1.6-6.5-3.2-9.9-4.7c-3.4-1.4-6.7-2.9-9.9-4.3
		c-3.2-1.4-6.1-2.9-8.6-4.6c-2.5-1.6-4.5-3.5-6.1-5.6c-1.5-2.1-2.3-4.5-2.3-7.3c0-1.7,0.4-3.3,1.3-4.8c0.8-1.6,2-2.9,3.6-4
		c1.5-1.1,3.4-2,5.6-2.7s4.6-1,7.2-1c5,0,9.6,1.5,14,4.3c4.4,2.8,8.3,7.1,11.8,12.9l6.7-6.1c-2.8-3.7-5.4-6.6-8-8.9
		c-2.6-2.3-5.1-4.1-7.7-5.3c-2.6-1.2-5.2-2.1-7.9-2.5c-2.7-0.5-5.5-0.7-8.6-0.7c-4.6,0-8.8,0.7-12.7,2s-7.2,3.1-10,5.4
		c-2.8,2.4-5,5.1-6.6,8.3c-1.6,3.2-2.4,6.6-2.4,10.4c0,4,0.7,7.5,2.1,10.4c1.4,2.9,3.3,5.5,5.6,7.7c2.3,2.2,5,4.2,8,5.9
		s6,3.3,9.1,4.8s6.1,2.9,9.1,4.3c3,1.3,5.7,2.9,8,4.6s4.2,3.6,5.6,5.7c1.4,2.1,2.1,4.6,2.1,7.4c0,1.7-0.4,3.4-1.3,5.1
		c-0.9,1.7-2.1,3.1-3.6,4.4c-1.5,1.3-3.4,2.3-5.5,3.1s-4.5,1.2-7,1.2c-2.6,0-5.1-0.3-7.4-1.1c-2.3-0.6-4.5-1.7-6.6-3.1
		c-2.1-1.4-4.2-3.3-6.3-5.5s-4.3-4.9-6.5-8.1l-7.5,6.9c2.8,3.7,5.6,6.6,8.5,8.9c2.9,2.3,5.8,4.1,8.7,5.3c2.9,1.2,5.8,2,8.6,2.5
		s5.6,0.7,8.3,0.7c5.9,0,11.1-0.8,15.6-2.2c4.5-1.4,8.2-3.4,11.1-5.9c2.9-2.5,5.1-5.5,6.6-8.9c1.5-3.5,2.2-7.2,2.2-11.1
		c0-3.9-0.7-7.3-2.3-10.2C335.2,107.9,333.1,105.3,330.6,103.1z"/>
	<polygon class="st1" points="354.7,57.2 354.7,147 373,147 373,51.9 367.6,51.9 	"/>
	<path class="st1" d="M456.4,58.5c-2.6-2.1-6-3.8-10.2-5s-9.4-1.8-15.5-1.8c-5,0-9.7,0.6-14.3,1.7c-4.5,1.1-8.5,2.7-11.9,4.6
		c-3.4,1.9-6.1,4.2-8.1,6.9s-3,5.5-3,8.6c0,1.5,0.2,3,0.7,4.3c0.5,1.4,1.1,2.5,2,3.5c0.9,1,1.9,1.8,3.1,2.3c1.1,0.5,2.5,0.8,3.9,0.8
		c1.8,0,3.3-0.3,4.5-1s2.1-1.6,2.8-2.7c0.7-1.2,1.1-2.5,1.4-4c0.3-1.5,0.4-3.1,0.4-4.7c0-1.8,0.2-3.5,0.6-5.2
		c0.4-1.7,1.2-3.3,2.3-4.6s2.6-2.4,4.6-3.2c2-0.8,4.5-1.2,7.6-1.2c2.8,0,5.3,0.4,7.5,1.2c2.3,0.8,4.1,2.1,5.7,3.9s2.8,4.2,3.6,7.1
		c0.9,2.9,1.3,6.5,1.3,10.7v5.8c-4.1,1.1-8.4,2.2-12.7,3.4c-4.4,1.2-8.6,2.6-12.7,4.2c-4.1,1.6-7.9,3.3-11.6,5.3
		c-3.7,2-6.9,4.3-9.6,6.8c-2.8,2.5-4.9,5.4-6.5,8.6c-1.6,3.2-2.4,6.8-2.4,10.8c0,3.3,0.5,6.4,1.6,9.2c1.1,2.9,2.7,5.3,4.8,7.4
		s4.6,3.7,7.5,4.9c3,1.2,6.3,1.8,9.9,1.8c3.9,0,7.3-0.4,10.3-1.3c2.9-0.9,5.7-2.1,8.1-3.5c2.4-1.5,4.7-3.1,6.8-4.8
		c2.1-1.7,4.2-3.4,6.4-5.1V147h18.4V76.5c0-3.7-0.5-7.1-1.7-10.2C460.9,63.2,459,60.6,456.4,58.5z M445.3,127.4
		c-1.8,1.4-3.6,2.8-5.4,4c-1.8,1.3-3.5,2.4-5.3,3.3c-1.7,0.9-3.5,1.7-5.4,2.2s-3.8,0.8-5.9,0.8c-2,0-3.9-0.4-5.7-1.3
		c-1.8-0.8-3.4-2.1-4.8-3.6c-1.4-1.5-2.5-3.3-3.3-5.4c-0.9-2.1-1.3-4.2-1.3-6.5c0-2.2,0.5-4.3,1.6-6.3s2.6-3.9,4.5-5.7
		c1.8-1.8,4-3.5,6.5-5.1c2.5-1.6,5.1-3,7.8-4.4c2.8-1.4,5.5-2.6,8.4-3.7c2.9-1.1,5.6-2.1,8.3-3h0V127.4z"/>
	<path class="st1" d="M564.4,69.1c-1.2-3.5-2.9-6.5-5-9c-2.1-2.5-4.5-4.5-7.4-6c-2.8-1.5-5.9-2.2-9.1-2.2c-6.3,0-12.4,1.5-18.5,4.7
		c-6.1,3.2-11.9,7.9-17.5,14.2v-17h-18.3V147H507V78c2.1-2,4.3-3.8,6.5-5.5s4.5-3.1,6.7-4.3c2.3-1.2,4.5-2.1,6.7-2.7
		c2.2-0.7,4.2-1,6.2-1c4.3,0,7.8,1.6,10.6,4.8c2.7,3.2,4.1,7.9,4.1,14v63.8h18.5v-67C566.3,76.2,565.6,72.5,564.4,69.1z"/>
	<polygon class="st1" points="237.5,51.9 237.5,147 255.8,147 255.8,57.2 242.8,51.9 	"/>
	<ellipse class="st1" cx="363.8" cy="29.4" rx="10.5" ry="9.2"/>
	
		<radialGradient id="SVGID_1_" cx="99.3563" cy="153.1142" r="246.2597" gradientTransform="matrix(1.2113 0 0 -1.2172 268.8335 217.6695)" gradientUnits="userSpaceOnUse">
		<stop  offset="0" style="stop-color:#004A7A"/>
		<stop  offset="0.1645" style="stop-color:#076291"/>
		<stop  offset="0.3308" style="stop-color:#1678A8"/>
		<stop  offset="0.4987" style="stop-color:#1F8BBC"/>
		<stop  offset="0.6661" style="stop-color:#259ACC"/>
		<stop  offset="0.8333" style="stop-color:#29A5D7"/>
		<stop  offset="1" style="stop-color:#2AA8DC"/>
	</radialGradient>
	<path class="st2" d="M257.9,7.3c-1.5-0.7-15.2-6-24,12.1c0,0-7.1,17,10.1,23c-0.9-1.8-6.4-11.7-2.5-20.9
		c-0.2,2.6-3.3,19.4,13.2,25.7c0.6-0.4,1.2-1,1.2-1s-3.6,0-7.6-4.2c1.6-1.4,8.3-5.5,5.2-15.7C253.5,26.3,246.6,10.8,257.9,7.3z"/>
</g>
</svg>
