<?xml version="1.0" encoding="utf-8"?>
<!-- Generator: Adobe Illustrator 21.0.2, SVG Export Plug-In . SVG Version: 6.00 Build 0)  -->
<svg version="1.1" id="Livello_1" xmlns="http://www.w3.org/2000/svg" xmlns:xlink="http://www.w3.org/1999/xlink" x="0px" y="0px"
	 viewBox="0 0 850.4 255.7" style="enable-background:new 0 0 850.4 255.7;" xml:space="preserve">
<style type="text/css">
	.st0{fill:url(#SVGID_1_);}
	.st1{fill:url(#SVGID_2_);}
	.st2{fill:url(#SVGID_3_);}
	.st3{fill:url(#SVGID_4_);}
	.st4{fill:url(#SVGID_5_);}
	.st5{fill:url(#SVGID_6_);}
	.st6{fill:#FFFFFF;}
	.st7{fill:#3C5564;}
	.st8{fill:url(#SVGID_7_);}
</style>
<g>
	<g>
		
			<radialGradient id="SVGID_1_" cx="147.9048" cy="-13.897" r="288.8263" gradientTransform="matrix(0.9316 0 0 -0.9362 57.0413 237.5886)" gradientUnits="userSpaceOnUse">
			<stop  offset="0" style="stop-color:#004A7A"/>
			<stop  offset="0.1645" style="stop-color:#076291"/>
			<stop  offset="0.3308" style="stop-color:#1678A8"/>
			<stop  offset="0.4987" style="stop-color:#1F8BBC"/>
			<stop  offset="0.6661" style="stop-color:#259ACC"/>
			<stop  offset="0.8333" style="stop-color:#29A5D7"/>
			<stop  offset="1" style="stop-color:#2AA8DC"/>
		</radialGradient>
		<path class="st0" d="M103.8,249c1.8,1.1,3.8,1.6,5.9,1.6c2,0,4-0.5,5.9-1.6l48.8-28.3H55L103.8,249z"/>
		
			<radialGradient id="SVGID_2_" cx="147.9058" cy="-13.8966" r="288.9459" gradientTransform="matrix(0.9316 0 0 -0.9362 57.0413 237.5886)" gradientUnits="userSpaceOnUse">
			<stop  offset="0" style="stop-color:#004A7A"/>
			<stop  offset="0.1645" style="stop-color:#076291"/>
			<stop  offset="0.3308" style="stop-color:#1678A8"/>
			<stop  offset="0.4987" style="stop-color:#1F8BBC"/>
			<stop  offset="0.6661" style="stop-color:#259ACC"/>
			<stop  offset="0.8333" style="stop-color:#29A5D7"/>
			<stop  offset="1" style="stop-color:#2AA8DC"/>
		</radialGradient>
		<polygon class="st1" points="28.6,139.2 28.6,205.4 40.1,212.1 40.1,139.2 		"/>
		
			<radialGradient id="SVGID_3_" cx="147.9052" cy="-13.8972" r="288.8268" gradientTransform="matrix(0.9316 0 0 -0.9362 57.0413 237.5886)" gradientUnits="userSpaceOnUse">
			<stop  offset="0" style="stop-color:#004A7A"/>
			<stop  offset="0.1645" style="stop-color:#076291"/>
			<stop  offset="0.3308" style="stop-color:#1678A8"/>
			<stop  offset="0.4987" style="stop-color:#1F8BBC"/>
			<stop  offset="0.6661" style="stop-color:#259ACC"/>
			<stop  offset="0.8333" style="stop-color:#29A5D7"/>
			<stop  offset="1" style="stop-color:#2AA8DC"/>
		</radialGradient>
		<path class="st2" d="M7.9,61.7C4.2,63.8,2,67.7,2,71.9v111.3c0,4.2,2.2,8.1,5.9,10.2l12.1,7V54.7L7.9,61.7z"/>
		
			<radialGradient id="SVGID_4_" cx="147.9049" cy="-13.897" r="288.8272" gradientTransform="matrix(0.9316 0 0 -0.9362 57.0413 237.5886)" gradientUnits="userSpaceOnUse">
			<stop  offset="0" style="stop-color:#004A7A"/>
			<stop  offset="0.1645" style="stop-color:#076291"/>
			<stop  offset="0.3308" style="stop-color:#1678A8"/>
			<stop  offset="0.4987" style="stop-color:#1F8BBC"/>
			<stop  offset="0.6661" style="stop-color:#259ACC"/>
			<stop  offset="0.8333" style="stop-color:#29A5D7"/>
			<stop  offset="1" style="stop-color:#2AA8DC"/>
		</radialGradient>
		<path class="st3" d="M53,108.1h125.4v8.7H28.6v13.7h149.8v8.7H53V212h126.2l32.2-18.7c3.6-2.1,5.9-6,5.9-10.2V71.9
			c0-4.2-2.2-8.1-5.9-10.2l-31-18H53V108.1z"/>
		
			<radialGradient id="SVGID_5_" cx="147.905" cy="-13.897" r="288.8265" gradientTransform="matrix(0.9316 0 0 -0.9362 57.0413 237.5886)" gradientUnits="userSpaceOnUse">
			<stop  offset="0" style="stop-color:#004A7A"/>
			<stop  offset="0.1645" style="stop-color:#076291"/>
			<stop  offset="0.3308" style="stop-color:#1678A8"/>
			<stop  offset="0.4987" style="stop-color:#1F8BBC"/>
			<stop  offset="0.6661" style="stop-color:#259ACC"/>
			<stop  offset="0.8333" style="stop-color:#29A5D7"/>
			<stop  offset="1" style="stop-color:#2AA8DC"/>
		</radialGradient>
		<path class="st4" d="M115.5,6c-3.6-2.1-8.1-2.1-11.7,0l-50,29h111.7L115.5,6z"/>
		
			<radialGradient id="SVGID_6_" cx="147.9058" cy="-13.8973" r="288.828" gradientTransform="matrix(0.9316 0 0 -0.9362 57.0413 237.5886)" gradientUnits="userSpaceOnUse">
			<stop  offset="0" style="stop-color:#004A7A"/>
			<stop  offset="0.1645" style="stop-color:#076291"/>
			<stop  offset="0.3308" style="stop-color:#1678A8"/>
			<stop  offset="0.4987" style="stop-color:#1F8BBC"/>
			<stop  offset="0.6661" style="stop-color:#259ACC"/>
			<stop  offset="0.8333" style="stop-color:#29A5D7"/>
			<stop  offset="1" style="stop-color:#2AA8DC"/>
		</radialGradient>
		<polygon class="st5" points="40.1,108.1 40.1,43 28.6,49.6 28.6,108.1 		"/>
		<polygon class="st6" points="20,200.4 28.6,205.4 28.6,139.2 40.1,139.2 40.1,212.1 55,220.7 164.3,220.7 179.3,212 53,212 
			53,139.2 178.4,139.2 178.4,130.5 28.6,130.5 28.6,116.8 178.4,116.8 178.4,108.1 53,108.1 53,43.7 180.5,43.7 165.5,35 53.8,35 
			40.1,43 40.1,108.1 28.6,108.1 28.6,49.6 20,54.7 		"/>
	</g>
	<path class="st7" d="M369.6,76.1v7.8h-63.4v43.3h42.4v7.8h-42.4v54.3h63.4v7.8h-83.7v-121C285.9,76.1,369.6,76.1,369.6,76.1z"/>
	<path class="st7" d="M407,197h-18.4V61.3l13.1-5.3h5.3V197z"/>
	<path class="st7" d="M497.9,197h-18.5v-12.8c-2.2,1.7-4.3,3.4-6.4,5.1c-2.1,1.7-4.4,3.3-6.8,4.8c-2.4,1.4-5.2,2.6-8.1,3.5
		c-3,0.9-6.4,1.3-10.3,1.3c-3.6,0-6.9-0.6-9.9-1.8c-2.9-1.2-5.4-2.8-7.5-4.9c-2.1-2.1-3.7-4.5-4.8-7.4c-1.1-2.8-1.6-5.9-1.6-9.2
		c0-4,0.8-7.6,2.4-10.8s3.7-6.1,6.5-8.6c2.7-2.5,5.9-4.8,9.6-6.8s7.5-3.7,11.6-5.3s8.3-3,12.7-4.2c4.3-1.2,8.6-2.3,12.7-3.4v-5.8
		c0-4.2-0.4-7.8-1.3-10.7c-0.8-2.9-2-5.3-3.6-7.1c-1.6-1.8-3.4-3.1-5.7-3.9c-2.2-0.8-4.7-1.2-7.5-1.2c-3.1,0-5.6,0.4-7.6,1.2
		c-2,0.8-3.5,1.9-4.6,3.2c-1.1,1.3-1.9,2.9-2.3,4.6s-0.6,3.4-0.6,5.2c0,1.6-0.1,3.2-0.4,4.7c-0.3,1.5-0.7,2.8-1.4,4
		c-0.7,1.1-1.6,2-2.8,2.7c-1.2,0.7-2.7,1-4.5,1c-1.4,0-2.8-0.3-3.9-0.8c-1.2-0.5-2.2-1.3-3.1-2.3s-1.5-2.1-2-3.5
		c-0.5-1.3-0.7-2.8-0.7-4.3c0-3.1,1-5.9,3-8.6s4.7-5,8.1-6.9s7.4-3.5,11.9-4.6c4.6-1.1,9.3-1.7,14.3-1.7c6.1,0,11.3,0.6,15.5,1.8
		c4.2,1.2,7.6,2.9,10.2,5s4.5,4.7,5.6,7.8c1.2,3.1,1.7,6.5,1.7,10.2L497.9,197L497.9,197z M479.4,142.7c-2.7,0.9-5.4,1.9-8.3,3
		s-5.6,2.3-8.4,3.7c-2.7,1.4-5.3,2.8-7.8,4.4c-2.5,1.6-4.7,3.3-6.5,5.1c-1.9,1.8-3.4,3.7-4.5,5.7s-1.6,4.1-1.6,6.3
		c0,2.3,0.4,4.4,1.3,6.5c0.8,2.1,1.9,3.9,3.3,5.4s3,2.8,4.8,3.6c1.8,0.9,3.7,1.3,5.7,1.3c2.1,0,4-0.3,5.9-0.8s3.7-1.3,5.4-2.2
		c1.8-0.9,3.5-2,5.3-3.3c1.8-1.2,3.6-2.6,5.4-4L479.4,142.7L479.4,142.7z"/>
	<path class="st7" d="M585.7,192.6c2.5,0,4.9-0.4,7-1.2s4-1.8,5.5-3.1s2.7-2.7,3.6-4.4c0.9-1.7,1.3-3.4,1.3-5.1
		c0-2.8-0.7-5.3-2.1-7.4c-1.4-2.1-3.3-4-5.6-5.7s-5-3.3-8-4.6c-3-1.4-6-2.8-9.1-4.3s-6.1-3.1-9.1-4.8s-5.7-3.7-8-5.9
		s-4.2-4.8-5.6-7.7c-1.4-2.9-2.1-6.4-2.1-10.4c0-3.8,0.8-7.2,2.4-10.4c1.6-3.2,3.8-5.9,6.6-8.3c2.8-2.3,6.1-4.1,10-5.4s8.1-2,12.7-2
		c3.1,0,5.9,0.2,8.6,0.7c2.7,0.4,5.3,1.3,7.9,2.5c2.6,1.2,5.1,3,7.7,5.3c2.6,2.3,5.2,5.2,8,8.9l-6.7,6.1
		c-3.5-5.8-7.4-10.1-11.8-12.9c-4.4-2.8-9-4.3-14-4.3c-2.6,0-5,0.3-7.2,1s-4.1,1.6-5.6,2.7c-1.6,1.1-2.8,2.4-3.6,4
		c-0.9,1.5-1.3,3.1-1.3,4.8c0,2.8,0.8,5.2,2.3,7.3c1.6,2.1,3.6,4,6.1,5.6c2.5,1.7,5.4,3.2,8.6,4.6c3.2,1.4,6.5,2.9,9.9,4.3
		c3.4,1.5,6.7,3.1,9.9,4.7c3.2,1.7,6.1,3.6,8.6,5.9c2.5,2.2,4.6,4.8,6.1,7.7c1.6,2.9,2.3,6.3,2.3,10.2s-0.7,7.6-2.2,11.1
		c-1.5,3.4-3.7,6.4-6.6,8.9c-2.9,2.5-6.6,4.5-11.1,5.9s-9.7,2.2-15.6,2.2c-2.7,0-5.5-0.2-8.3-0.7s-5.7-1.3-8.6-2.5
		c-2.9-1.2-5.8-3-8.7-5.3s-5.7-5.2-8.5-8.9l7.5-6.9c2.2,3.2,4.4,5.9,6.5,8.1c2.1,2.2,4.2,4.1,6.3,5.5s4.3,2.5,6.6,3.1
		C580.6,192.3,583.1,192.6,585.7,192.6z"/>
	<polygon class="st7" points="636.7,107.2 649.6,101.9 655,101.9 655,197 636.7,197 	"/>
	<path class="st7" d="M745.8,197h-18.5v-12.8c-2.2,1.7-4.3,3.4-6.4,5.1c-2.1,1.7-4.4,3.3-6.8,4.8c-2.4,1.4-5.2,2.6-8.1,3.5
		c-3,0.9-6.4,1.3-10.3,1.3c-3.6,0-6.9-0.6-9.9-1.8c-2.9-1.2-5.4-2.8-7.5-4.9c-2.1-2.1-3.7-4.5-4.8-7.4c-1.1-2.8-1.6-5.9-1.6-9.2
		c0-4,0.8-7.6,2.4-10.8c1.6-3.2,3.7-6.1,6.5-8.6c2.7-2.5,5.9-4.8,9.6-6.8c3.7-2,7.5-3.7,11.6-5.3s8.3-3,12.7-4.2
		c4.3-1.2,8.6-2.3,12.7-3.4v-5.8c0-4.2-0.4-7.8-1.3-10.7c-0.8-2.9-2-5.3-3.6-7.1c-1.6-1.8-3.4-3.1-5.7-3.9c-2.2-0.8-4.7-1.2-7.5-1.2
		c-3.1,0-5.6,0.4-7.6,1.2c-2,0.8-3.5,1.9-4.6,3.2c-1.1,1.3-1.9,2.9-2.3,4.6c-0.4,1.7-0.6,3.4-0.6,5.2c0,1.6-0.1,3.2-0.4,4.7
		c-0.3,1.5-0.7,2.8-1.4,4c-0.7,1.1-1.6,2-2.8,2.7s-2.7,1-4.5,1c-1.4,0-2.8-0.3-3.9-0.8c-1.2-0.5-2.2-1.3-3.1-2.3
		c-0.9-1-1.5-2.1-2-3.5c-0.5-1.3-0.7-2.8-0.7-4.3c0-3.1,1-5.9,3-8.6s4.7-5,8.1-6.9c3.4-1.9,7.4-3.5,11.9-4.6
		c4.6-1.1,9.3-1.7,14.3-1.7c6.1,0,11.3,0.6,15.5,1.8c4.2,1.2,7.6,2.9,10.2,5c2.6,2.1,4.5,4.7,5.6,7.8c1.2,3.1,1.7,6.5,1.7,10.2
		L745.8,197L745.8,197z M727.3,142.7c-2.7,0.9-5.4,1.9-8.3,3c-2.9,1.1-5.6,2.3-8.4,3.7c-2.7,1.4-5.3,2.8-7.8,4.4
		c-2.5,1.6-4.7,3.3-6.5,5.1c-1.9,1.8-3.4,3.7-4.5,5.7s-1.6,4.1-1.6,6.3c0,2.3,0.4,4.4,1.3,6.5c0.8,2.1,1.9,3.9,3.3,5.4
		c1.4,1.5,3,2.8,4.8,3.6c1.8,0.9,3.7,1.3,5.7,1.3c2.1,0,4-0.3,5.9-0.8s3.7-1.3,5.4-2.2c1.8-0.9,3.5-2,5.3-3.3c1.8-1.2,3.6-2.6,5.4-4
		L727.3,142.7L727.3,142.7z"/>
	<path class="st7" d="M770.5,103.8h18.4v17c5.6-6.3,11.4-11,17.5-14.2s12.2-4.7,18.5-4.7c3.2,0,6.3,0.7,9.1,2.2
		c2.9,1.5,5.3,3.5,7.4,6c2.1,2.5,3.8,5.5,5,9c1.2,3.4,1.9,7.1,1.9,11v67h-18.5v-63.8c0-6.1-1.4-10.8-4.1-14
		c-2.8-3.2-6.3-4.8-10.6-4.8c-2,0-4,0.3-6.2,1c-2.2,0.6-4.4,1.5-6.7,2.7c-2.2,1.2-4.5,2.6-6.7,4.3c-2.2,1.7-4.4,3.5-6.5,5.5v69
		h-18.4v-93.2H770.5z"/>
	<polygon class="st7" points="537.8,197 519.5,197 519.5,101.9 524.8,101.9 537.8,107.2 	"/>
	<ellipse class="st7" cx="645.8" cy="79.4" rx="10.5" ry="9.2"/>
	
		<radialGradient id="SVGID_7_" cx="381.3563" cy="203.1142" r="246.2597" gradientTransform="matrix(1.2113 0 0 -1.2172 209.2469 328.5295)" gradientUnits="userSpaceOnUse">
		<stop  offset="0" style="stop-color:#004A7A"/>
		<stop  offset="0.1645" style="stop-color:#076291"/>
		<stop  offset="0.3308" style="stop-color:#1678A8"/>
		<stop  offset="0.4987" style="stop-color:#1F8BBC"/>
		<stop  offset="0.6661" style="stop-color:#259ACC"/>
		<stop  offset="0.8333" style="stop-color:#29A5D7"/>
		<stop  offset="1" style="stop-color:#2AA8DC"/>
	</radialGradient>
	<path class="st8" d="M530.3,92c1.6-1.4,8.3-5.5,5.2-15.7c0,0-6.9-15.5,4.4-19c-1.5-0.7-15.2-6-24,12.1c0,0-7.1,17,10.1,23
		c-0.9-1.8-6.4-11.7-2.5-20.9c-0.2,2.6-3.3,19.4,13.2,25.7c0.6-0.4,1.2-1,1.2-1S534.3,96.2,530.3,92z"/>
</g>
</svg>
