<?xml version="1.0" encoding="utf-8"?>
<!-- Generator: Adobe Illustrator 21.0.2, SVG Export Plug-In . SVG Version: 6.00 Build 0)  -->
<svg version="1.1" id="Livello_1" xmlns="http://www.w3.org/2000/svg" xmlns:xlink="http://www.w3.org/1999/xlink" x="0px" y="0px"
	 viewBox="0 0 55.7 32.3" style="enable-background:new 0 0 55.7 32.3;" xml:space="preserve">
<style type="text/css">
	.st0{fill:#FFFFFF;}
</style>
<path class="st0" d="M55.7,21C55.7,21,55.7,21,55.7,21c0,3.7,0,7.3,0,11L55.7,21L55.7,21z"/>
<g>
	<polygon class="st0" points="16.2,4.9 19.7,4.9 19.7,3.7 16.2,3.7 16.2,1.4 19.7,1.4 19.7,0.2 16.2,0.2 15,0.2 15,1.4 15,3.7 
		15,4.9 15,9 16.2,9 	"/>
	<polygon class="st0" points="26.8,9 26.8,7.8 22.9,7.8 22.9,0.2 21.5,0.2 21.5,7.8 21.5,9 22.9,9 	"/>
	<path class="st0" d="M32,9.3c2.6,0,4.8-2.1,4.8-4.6S34.7,0,32,0s-4.8,2.1-4.8,4.6S29.4,9.3,32,9.3z M32.1,1.3
		c1.9,0,3.4,1.5,3.4,3.3C35.5,6.5,34,8,32.1,8s-3.4-1.5-3.4-3.3C28.7,2.8,30.2,1.3,32.1,1.3z"/>
	<path class="st0" d="M31.7,4.7C31.7,4.7,31.7,4.7,31.7,4.7C29.3,5.9,31.1,7.5,32,5c0,0,0,0,0.1,0c-0.2,2.7,2.1,1.9,0.3-0.1
		c0,0,0,0,0-0.1C34.6,6.4,35,4,32.4,4.5c0,0,0,0,0-0.1c2.5-1.1,0.6-2.8-0.2-0.2c0,0,0,0-0.1,0c0.2-2.7-2.1-1.9-0.3,0.1
		c0,0,0,0-0.1,0.1C29.6,2.9,29.1,5.3,31.7,4.7z"/>
	<path class="st0" d="M41.2,5.8c0.9,0.7,0.8,1.8-0.6,2.2c-1.4,0.3-2.5-1.2-2.5-1.2s-0.1,1.5,0,1.6c2.7,1.7,4.8,0.3,4.8-1.6
		c0.1-1.9-1.9-2.7-2.9-3.3c-1-0.6-1.3-1.8,0.1-2.2c1.4-0.4,2.5,0.9,2.5,0.9V0.8c-0.3-0.3-1.7-0.8-2.6-0.6c-1.7,0.4-1.9,1.3-2,2.6
		C38,4,40.3,5.1,41.2,5.8z"/>
	<rect x="41.1" y="10.2" class="st0" width="1.3" height="8.8"/>
	<polygon class="st0" points="38.5,11.3 38.5,10.2 34.8,10.2 33.6,10.2 33.6,11.3 33.6,14 33.6,15.1 33.6,17.9 33.6,19 34.8,19 
		38.7,19 38.7,17.9 34.8,17.9 34.8,15.1 38.5,15.1 38.5,14 34.8,14 34.8,11.3 	"/>
	<polygon class="st0" points="26.2,10.3 26.2,17.9 26.2,19 27.4,19 31.4,19 31.4,17.9 27.4,17.9 27.4,10.3 	"/>
	<path class="st0" d="M19.1,16.2c0.6,0,1.1-0.5,1.1-1.1c0-0.6-0.8-1.7-1.1-2c0,0-1.1,1.4-1.1,2C18,15.7,18.5,16.2,19.1,16.2z"/>
	<path class="st0" d="M19.1,19.2c2.6,0,4.8-2.1,4.8-4.6s-2.1-4.6-4.8-4.6s-4.8,2.1-4.8,4.6S16.5,19.2,19.1,19.2z M19.2,11.2
		c1.9,0,3.4,1.5,3.4,3.3c0,1.8-1.5,3.3-3.4,3.3c-1.9,0-3.4-1.5-3.4-3.3C15.8,12.7,17.3,11.2,19.2,11.2z"/>
	<path class="st0" d="M0.1,21v11.3h55.6V21H0.1z M38.7,23.6c0.1,0,0.1,0.1,0.1,0.3c0,0.2,0.1,1.1,0,1.4s-0.1,1.1-0.2,1
		C38.6,26.3,37.3,25,38.7,23.6z M30.9,25H30c-0.2-0.5-0.4-1-0.8-1.2C29.9,24,30.5,24.4,30.9,25z M28.3,26.8c0,0.4,0,0.9,0,1.3h-1.1
		c-0.1-0.4-0.2-0.8-0.2-1.3H28.3z M27,26.6c0-0.5,0.1-0.9,0.2-1.3h1.1c0,0.4,0,0.8,0,1.3H27z M28.3,23.8c0,0.3,0,0.6,0,1.2h-1
		C27.5,24.4,27.9,23.9,28.3,23.8z M27.7,23.8c-0.3,0.3-0.6,0.7-0.7,1.2H26C26.4,24.5,27,24,27.7,23.8z M6.7,28.8
		c-0.3,0.1-2.6,0.1-2.6,0.1S2.8,28.2,3,27.1c0.2-1.1,0.7-2.2,0.7-2.2s3.3-0.1,3.3,0c0,0.1,0.6,1.3,0.7,1.7
		C7.8,27.1,7.8,28.6,6.7,28.8z M16.1,27.6h-0.9v-1.3c-0.9-0.1-1.6-0.7-1.6-1.4c0-0.8,0.9-1.4,2-1.4c1.1,0,2,0.6,2,1.4
		c0,0.7-0.6,1.2-1.5,1.4V27.6z M19.4,29.3c0,0-0.3,0-0.7,0v0.8H18v-0.8c-0.3,0-0.5,0-0.6,0c-0.3-0.1-0.8-0.4-0.4-1.3
		c0.5-0.9,1.1-2.7,1.7-1.7c0.2,0.3,0.9,1.6,1,1.8C19.7,28,20.3,29,19.4,29.3z M25.9,25.3h1c-0.1,0.4-0.2,0.8-0.2,1.3h-1.2
		C25.5,26.1,25.6,25.7,25.9,25.3z M25.5,26.8h1.2c0,0.5,0.1,0.9,0.2,1.3h-1C25.7,27.7,25.5,27.3,25.5,26.8z M26,28.3H27
		c0.2,0.5,0.5,1,0.8,1.2C27,29.3,26.4,28.9,26,28.3z M27.3,28.3h1c0,0.4,0,0.8,0,1.1C27.9,29.4,27.5,28.9,27.3,28.3z M28.6,23.8
		c0.4,0.1,0.8,0.5,1.1,1.2h-1.1C28.6,24.5,28.6,24.1,28.6,23.8z M28.6,25.3h1.2c0.1,0.4,0.2,0.8,0.2,1.3h-1.3
		C28.6,26.1,28.6,25.7,28.6,25.3z M28.6,26.8h1.3c0,0.5-0.1,0.9-0.2,1.3h-1.1C28.6,27.6,28.6,27.2,28.6,26.8z M28.6,29.4
		c0-0.4,0-0.7,0-1.1h1C29.4,28.9,29,29.4,28.6,29.4z M29.1,29.5c0.3-0.2,0.6-0.7,0.8-1.2h1C30.5,28.9,29.9,29.4,29.1,29.5z M31,28.1
		h-1c0.1-0.4,0.2-0.8,0.2-1.3h1.2C31.4,27.3,31.3,27.7,31,28.1z M30.2,26.6c0-0.5-0.1-0.9-0.2-1.3h1c0.2,0.4,0.3,0.8,0.3,1.3H30.2z
		 M39.3,29.6c-0.6,0.3-1.4-0.1-1.8-0.9c-0.4-0.8-0.2-1.7,0.4-2c0.6-0.3,1.4,0.1,1.8,0.9C40.1,28.4,39.9,29.3,39.3,29.6z M41.7,27.5
		c-0.4,0.4-1.1,0.3-1.7-0.2c-0.6-0.5-0.8-1.3-0.4-1.7c0.4-0.4,1.1-0.3,1.7,0.2C41.9,26.4,42.1,27.1,41.7,27.5z M52.4,29.7h-2.6v-3.6
		c0,0,0.1-0.7,0.8-0.7c0.1,0,0-1.8,0-1.8h0.9l0,1.8c0,0,0.7-0.1,0.8,0.8C52.4,27,52.4,29.7,52.4,29.7z"/>
</g>
</svg>
