<?xml version="1.0" encoding="utf-8"?>
<!-- Generator: Adobe Illustrator 21.0.2, SVG Export Plug-In . SVG Version: 6.00 Build 0)  -->
<svg version="1.1" id="Livello_1" xmlns="http://www.w3.org/2000/svg" xmlns:xlink="http://www.w3.org/1999/xlink" x="0px" y="0px"
	 viewBox="0 0 50 50" style="enable-background:new 0 0 50 50;" xml:space="preserve">
<path d="M48.7,12.8l-1.2-1.2l-3.4-3.4l-1.2-1.2l-1.2-1.2l-3.2-3.2l0,0l-1.2-1.2L36,0l0,0l-1.2,1.2l-1.2,1.2l-3.6,3.6l-1.2,1.2
	l-1.2,1.2L3.5,32.5v0.1l0,0l-1.2,1.2l-0.5,0.5L1,35l-1,1v2.5V41v5.5v0.8v0.4v0.5V50h1.8h0.5h1.2H9h2.5H14l1-1l0.8-0.8l0.5-0.5
	l1.2-1.2l0,0h0.1l23.9-23.9l1.2-1.2l1.2-1.2l3.6-3.6l1.2-1.2L50,14L48.7,12.8z M29.9,11.1l3.2,3.2L9.1,38.2L6,35L29.9,11.1z
	 M12.5,46.5L12.5,46.5l-6.7,0H3.5v-0.2v-2.5v-6.2l0,0l0,0v0.1l3.1,3.1l1.2,1.2l1.2,1.2L12.5,46.5L12.5,46.5L12.5,46.5z M15,44
	l-3.4-3.4l23.9-23.9l3.4,3.4L15,44z M41.4,17.6L38,14.3L36.8,13l-1.2-1.2l-3.2-3.2L36,5l3.2,3.2l1.2,1.2l1.2,1.2L45,14L41.4,17.6z"
	/>
</svg>
