<?xml version="1.0" encoding="utf-8"?>
<!-- Generator: Adobe Illustrator 21.0.2, SVG Export Plug-In . SVG Version: 6.00 Build 0)  -->
<svg version="1.1" id="Livello_1" xmlns="http://www.w3.org/2000/svg" xmlns:xlink="http://www.w3.org/1999/xlink" x="0px" y="0px"
	 viewBox="0 0 50 50" style="enable-background:new 0 0 50 50;" xml:space="preserve">
<g>
	<path d="M9.8,36.6c-2,0-3.6,1.6-3.6,3.6c0,2,1.6,3.6,3.6,3.6s3.6-1.6,3.6-3.6C13.4,38.2,11.8,36.6,9.8,36.6z M9.8,41.5
		c-0.8,0-1.4-0.6-1.4-1.4c0-0.8,0.6-1.4,1.4-1.4c0.8,0,1.4,0.6,1.4,1.4C11.2,40.9,10.6,41.5,9.8,41.5z"/>
	<path d="M49.5,10.5c-0.3-1.2-0.8-2.3-1.4-3.3l-2.5,2.5l-5.5,5.5l-5.4-5.3l5.5-5.5l2.5-2.5c-1-0.6-2.2-1-3.3-1.3
		C38.3,0.2,37.1,0,35.8,0C28,0,21.6,6.3,21.6,14.2c0,1.6,0.3,3.1,0.8,4.6c-3.3,1.6-6.9,3.9-10.1,6.8c-7.9,7-11.6,12.1-11.8,16.5
		c-0.1,2.2,0.6,4.1,2.1,5.8c1.3,1.4,3,2.1,4.9,2.2c0,0,0.1,0,0.1,0c4,0,8.9-3,14.6-8.9c5.5-5.7,9-9.9,11-13.1
		c0.9,0.2,1.7,0.3,2.6,0.3C43.6,28.3,50,22,50,14.2C50,12.9,49.8,11.6,49.5,10.5z M19.8,38.8c-6.6,6.8-10.4,7.9-12.2,7.9
		c0,0,0,0,0,0c-1,0-1.8-0.4-2.5-1.1c-0.9-1-1.3-2.1-1.3-3.4c0.2-3.4,3.7-8,10.7-14.2c3.2-2.8,6.5-4.9,9.4-6.3
		c1.5,2.3,3.6,4.1,6.1,5.3C28,29.7,24.8,33.6,19.8,38.8z M35.8,25c-0.3,0-0.5,0-0.8,0c-1.2-0.1-2.3-0.4-3.3-0.8
		c-1.9-0.8-3.5-2.1-4.7-3.7c-0.5-0.8-1-1.6-1.3-2.5c-0.1-0.2-0.1-0.3-0.2-0.5c-0.3-1.1-0.5-2.2-0.5-3.3c0-6,4.9-10.8,10.9-10.8
		c0.3,0,0.5,0,0.7,0l-6.5,6.4l10,10l6.5-6.5c0,0.3,0,0.6,0,0.8C46.7,20.1,41.8,25,35.8,25z"/>
</g>
</svg>
