<?xml version="1.0" encoding="utf-8"?>
<!-- Generator: Adobe Illustrator 21.0.2, SVG Export Plug-In . SVG Version: 6.00 Build 0)  -->
<svg version="1.1" id="Livello_1" xmlns="http://www.w3.org/2000/svg" xmlns:xlink="http://www.w3.org/1999/xlink" x="0px" y="0px"
	 viewBox="0 0 50 50" style="enable-background:new 0 0 50 50;" xml:space="preserve">
<image style="overflow:visible;" width="1920" height="1080" xlink:href="89EF4F47.jpg"  transform="matrix(1 0 0 1 -241 -590)">
</image>
<path d="M47.8,18.6V50H35.4V18.6H47.8z M18.2,50h12.6V28.1H18.2V50z M1.1,50h12.5V37.6H1.1V50z M40.5,6.1v6.8h3.8V2.6l0.1,0l-0.1,0
	V0h-2.6l-0.1,0l-0.1,0H29.4v3.5h8.4L24.5,16.1l-8.5-8.6L4.5,18.4l2.7,2.5l8.8-8.3l8.5,8.6L40.5,6.1z"/>
</svg>
