<?xml version="1.0" encoding="utf-8"?>
<!-- Generator: Adobe Illustrator 21.0.2, SVG Export Plug-In . SVG Version: 6.00 Build 0)  -->
<svg version="1.1" id="Livello_1" xmlns="http://www.w3.org/2000/svg" xmlns:xlink="http://www.w3.org/1999/xlink" x="0px" y="0px"
	 viewBox="0 0 242.7 65.7" style="enable-background:new 0 0 242.7 65.7;" xml:space="preserve">
<style type="text/css">
	.st0{fill:#FFFFFF;}
</style>
<path class="st0" d="M9.6,11.8c-0.5,1.3-1,2.5-1.5,3.7c-0.2,0.5-0.5,0.6-1,0.6c-2,0-2,0-2,2c0,13.7,0,27.4,0,41.2
	c0,0.8,0.2,1.1,1,1.1c12.6,0,25.1,0,37.7,0c0.8,0,1.1-0.2,1.1-1.1c0-6.6,0-13.1,0-19.7c0-0.7,0.2-1.3,0.6-1.9
	c0.9-1.1,1.8-2.3,2.7-3.5c0.2-0.3,0.4-0.5,0.7-0.8c0.2,0.2,0.1,0.5,0.1,0.7c0,9.9,0,19.8,0,29.6c0,0.8-0.2,1-1,1
	c-15.4,0-30.7,0-46.1,0c-0.8,0-1-0.2-1-1c0-17,0-34.1,0-51.1c0-0.8,0.2-1,1-1C4.5,11.8,7,11.8,9.6,11.8z M213.9,30.1
	c-1.1,0-2.2,0-3.3,0c-0.5,0-0.8,0.1-0.8,0.7c0,5.4,0,10.7,0,16.1c0,0.6,0.2,0.7,0.8,0.7c1.1,0,2.2-0.1,3.3,0c0.7,0,0.9-0.2,0.9-0.9
	c0-4,0-8,0-12c0-0.4,0-0.7,0.1-1.1c0.1-0.4,0.4-0.6,0.8-0.6c0.4,0,0.6,0.3,0.6,0.7c0,0.5,0.1,1,0.1,1.5c0,3.8,0,7.7,0,11.5
	c0,0.6,0.1,0.9,0.8,0.8c1.1-0.1,2.2-0.1,3.3,0c0.7,0,0.8-0.2,0.8-0.8c0-3.7,0-7.4,0-11.1c0-0.6,0.1-1.3,0.1-1.9
	c0-0.5,0.2-0.8,0.8-0.7c0.5,0,0.6,0.4,0.6,0.8c0,0.8,0.1,1.6,0.1,2.4c0,3.5,0,7.1,0,10.6c0,0.6,0.2,0.8,0.8,0.8c1.1,0,2.2-0.1,3.2,0
	c0.7,0,0.9-0.2,0.9-0.9c0-3.6,0-7.2,0-10.9c0-1.2,0-2.3-0.2-3.5c-0.3-1.4-1.2-2.3-2.6-2.5c-1.6-0.2-2.8,0.4-3.8,1.7
	c-2.3-2.3-3.4-2.3-6.4-0.3C214.8,30.1,214.8,30.1,213.9,30.1z M118.2,47.6c1.1-0.1,2.3,0,3.4,0c0.5,0,0.7-0.1,0.7-0.7
	c0-5.4,0-10.8,0-16.2c0-0.6-0.2-0.7-0.7-0.7c-1.2,0-2.4,0.1-3.5,0c-0.7,0-0.9,0.2-0.9,0.9c0,3.6,0,7.1,0,10.7c0,0.8,0,1.6-0.1,2.4
	c0,0.5-0.3,0.7-0.7,0.7c-0.4,0-0.6-0.2-0.6-0.6c0-0.4,0-0.7,0-1.1c0-3.9,0-7.9,0-11.8c0-0.9-0.3-1.2-1.1-1.1c-1,0.1-2.1,0.1-3.2,0
	c-0.7,0-0.9,0.2-0.9,0.9c0,3.6,0,7.2,0,10.9c0,1.1-0.1,2.2,0.2,3.3c0.2,0.9,0.5,1.8,1.4,2.3c1.6,0.9,3.7,0.5,5-1.2
	C117,47.4,117.4,47.6,118.2,47.6z M70.7,35.6c0.2,0,0.4,0,0.5-0.3c0.6-1.4-0.4-4-1.9-4.8c-1.7-0.9-3.6-1-5.4-0.6
	c-2.3,0.4-3.1,1.3-3.3,3.6c-0.3,2.1-0.1,4.1,1.9,5.5c0.9,0.6,1.9,1.3,2.9,1.8c1.4,0.6,1.6,1.6,1.5,2.9c-0.1,0.5-0.3,0.9-0.8,0.9
	c-0.6,0-0.8-0.4-0.8-0.8c-0.1-0.6-0.1-1.3-0.1-1.9c0-0.4,0-0.6-0.5-0.6c-1.2,0-2.4,0-3.5,0c-0.3,0-0.5,0.1-0.5,0.4
	c-0.2,3.1,0.5,5.5,4.2,6c4.1,0.5,6.5-0.7,6.7-4.7c0.1-2.5-0.7-4.5-3.1-5.5c-0.8-0.3-1.5-0.7-2.2-1.2c-0.9-0.6-1.4-1.7-1.1-2.7
	c0.1-0.5,0.4-0.7,0.9-0.7c0.5,0,0.6,0.3,0.6,0.7c0.1,0.6-0.3,1.5,0.3,1.8c0.5,0.3,1.3,0.1,1.9,0.1c0,0,0.1,0,0.1,0
	C69.5,35.6,70.1,35.6,70.7,35.6z M189.4,38.8c0-1.6,0-3.3,0-4.9c0-0.4,0.1-0.8,0.6-0.9c0.6,0,0.7,0.5,0.7,0.9c0,0.7,0.1,1.5,0,2.2
	c0,0.5,0.1,0.7,0.6,0.6c0.8,0,1.7,0,2.5,0c1.8,0,1.8,0,1.6-1.9c-0.4-3.1-1.5-4.4-4.2-4.9c-0.7-0.1-1.4-0.1-2.1-0.1
	c-2.4,0.2-4.6,1.3-4.8,4.3c-0.2,3.2-0.3,6.5,0.1,9.7c0.3,2,1.7,3.4,3.4,3.8c0.9,0.2,1.9,0.3,2.9,0.2c1.1-0.1,2.1-0.4,3-1.2
	c1.6-1.6,1.9-3.6,1.9-5.7c0-0.5-0.2-0.7-0.7-0.6c-1.1,0-2.2,0-3.2,0c-0.6,0-0.7,0.3-0.7,0.7c0,0.7,0,1.4,0,2.1
	c0,0.6,0.1,1.5-0.8,1.5c-0.9,0-0.8-0.9-0.8-1.5C189.3,41.7,189.3,40.2,189.4,38.8C189.3,38.8,189.4,38.8,189.4,38.8z M103.4,45.2
	c0.2,1.5,1,2.3,2.5,2.3c1.1,0.1,2.3,0,3.4,0c0.1,0,0.2,0,0.3,0c0.7-0.6,0.2-1.4,0.3-2c0-0.3,0.2-0.8-0.3-0.8
	c-1.2,0.1-1.2-0.7-1.2-1.6c0-3,0-6,0-9c0-0.6,0.1-0.9,0.8-0.8c0.4,0.1,0.7-0.1,0.6-0.6c-0.2-0.8,0.4-1.6-0.4-2.3c0,0-0.1,0-0.1,0
	c-0.9,0.1-1-0.4-0.9-1c0-0.4,0-0.7,0-1.1c0-0.5-0.2-0.7-0.6-0.6c-0.7,0-1.4,0-2,0c-0.8,0-1.7-0.3-2.2,0.2c-0.5,0.4-0.1,1.3-0.2,2
	c0,0.4-0.1,0.6-0.5,0.6c-0.6-0.1-0.7,0.3-0.6,0.7c0,0.4,0,0.9,0,1.3c0,0.5,0,0.9,0.7,0.8c0.5-0.1,0.4,0.4,0.4,0.6c0,1.7,0,3.4,0,5.5
	C103.4,41.1,103.1,43.2,103.4,45.2z M177,45c0.2,1.5,1,2.4,2.5,2.5c0.7,0,1.4,0,2,0c2,0,2,0,2-2c0-0.6-0.1-0.9-0.8-0.9
	c-0.5,0-0.8-0.2-0.8-0.8c0-3.3,0-6.6,0-9.9c0-0.3,0-0.6,0.4-0.5c0.9,0.1,1-0.3,0.9-1c0-0.4,0-0.7,0-1.1c0-0.5-0.1-0.8-0.7-0.8
	c-0.5,0.1-0.6-0.1-0.7-0.6c0-0.7,0.4-1.6-0.2-2c-0.5-0.4-1.4-0.1-2.1-0.1c-0.2,0-0.4,0-0.7,0c-2.1,0-2.1,0-2.2,2.1
	c0,0.3,0,0.7-0.5,0.7c-0.6,0-0.6,0.3-0.6,0.8c0,0.5,0,1,0,1.5c0,0.4,0.1,0.7,0.6,0.6c0.6-0.1,0.6,0.3,0.6,0.7c0,1.6,0,3.3,0,5.3
	C177,41,176.8,43,177,45z M73.2,39.3c0,1.8,0,3.6,0,5.4c0,1.6,1,2.8,2.5,2.8c1.2,0,2.4,0,3.6,0c0.2,0,0.5,0,0.5-0.3
	c0-0.8,0-1.5,0-2.3c0-0.2-0.2-0.3-0.3-0.3c-1.4,0.1-1.3-0.9-1.3-1.7c0-2.9,0-5.8,0-8.6c0-0.7,0.1-1.1,0.9-1c0.6,0.1,0.5-0.5,0.5-0.8
	c-0.1-0.7,0.5-1.8-0.4-2c-1-0.2-1-0.6-1-1.3c0-0.3,0-0.6,0-0.9c0-0.5-0.2-0.7-0.6-0.6c-1,0-2,0-3,0c-1.4,0-1.4,0-1.4,1.5
	c0,0.6,0.3,1.5-0.9,1.3c-0.1,0-0.2,0.1-0.2,0.2c0,0.8,0,1.5,0,2.3c0,0.3,0.3,0.3,0.5,0.3c0.6-0.1,0.6,0.3,0.6,0.7
	C73.2,35.8,73.2,37.6,73.2,39.3C73.2,39.3,73.2,39.3,73.2,39.3z M98.5,31c0.2-0.8-0.2-0.9-0.8-0.9c-1.1,0-2.3,0-3.4,0
	c-0.5,0-0.8,0.1-0.8,0.7c0,5.4,0,10.7,0,16.1c0,0.6,0.2,0.7,0.8,0.7c1.2,0,2.4-0.1,3.5,0c0.7,0,0.9-0.2,0.9-0.9c0-2.6,0-5.3,0-7.9
	c0-2.1,0.4-2.5,2.4-2.7c0.5-0.1,0.6-0.2,0.6-0.6c0-1.6,0-3.3,0-4.9c0-0.7-0.3-0.7-0.8-0.6c-1,0.3-1.7,1-2.3,2
	C98.5,31.5,98.4,31.2,98.5,31z M54.1,9.4c2.3-0.2,2.4-0.3,2.1-2.5c0,0,0-0.1,0-0.1c-0.5-2.1-1.1-4.2-3.3-5.3c-2.5-1.2-5-1-7.3,0.6
	c-0.3,0.2-0.4,0.4-0.2,0.7c0.5,0.9,1.1,1.8,1.6,2.7C47.2,6,47.4,6,47.8,5.8c2.8-1.2,4.5-0.1,4.6,3c0,0.7,0.3,0.8,0.8,0.7
	C53.5,9.5,53.8,9.5,54.1,9.4z M25.6,13c0.3-0.1,0.6-0.1,0.5-0.6c-0.6-2.2-1.7-4-3.7-5.2c-0.9-0.5-1.8-1-2.8-0.6
	c-0.5,0.2-0.9,0.4-1.3,0.6c-1.5,0.6-2.7,1.7-3.8,2.9c-0.5,0.6-0.7,1.1,0.1,1.6c0.4,0.3,0.7,0.7,1.1,1c0.9,0.9,0.9,0.9,1.7-0.1
	c1.7-2,3.8-1.6,4.9,0.8c0.1,0.2,0.2,0.5,0.3,0.7C23.5,13.6,24.6,13.4,25.6,13z M27.5,41.3c0.9,4,5,5.9,8.4,3.9
	c0.3-0.2,0.7-0.3,0.4-0.8c-0.5-0.8-0.9-1.6-1.3-2.4c-0.2-0.4-0.5-0.6-0.9-0.5c-1.2,0.1-2.2-0.5-2.5-1.5c-0.4-1.6-1.4-1.8-2.7-1.5
	c-0.1,0-0.2,0-0.3,0c-1.3,0-1.3,0-1.3,1.4C27.2,40.3,27.4,40.8,27.5,41.3z M13.9,50c-0.3-0.1-0.7-0.2-0.8-0.4
	c-0.8-1.4-1.7-0.5-2.6-0.1c-0.3,0.1-0.5,0.2-0.8,0.3c-0.6,0.2-0.6,0.6-0.4,1.1c1,1.8,2.6,2.6,4.5,3.2c1.8,0.5,3.2-0.4,4.6-1.3
	c0.5-0.3,0.9-0.8,1.2-1.2c0.2-0.3,0.3-0.4-0.1-0.7c-0.7-0.5-1.5-1-2.2-1.6c-0.6-0.5-1.1-0.6-1.7,0.1c-0.2,0.3-0.6,0.5-0.9,0.6
	C14.5,50.2,14.2,50.2,13.9,50z M29.4,11.8c-0.4,0-0.6,0.1-0.5,0.5c0.1,1,0.2,2.1,0.3,3.1c0,0.5,0.2,0.6,0.7,0.6c1.1,0,2.2,0,3.3,0
	c0.5,0,0.7-0.2,0.8-0.6c0.3-1,0.6-2.1,0.9-3.1c0.1-0.5,0-0.6-0.4-0.6c-0.8,0-1.6,0-2.4,0C31.1,11.8,30.2,11.8,29.4,11.8z M35.5,30.7
	c-0.9-0.8-1.9-1.4-2.7-2.4c-0.2-0.2-0.3-0.1-0.4,0.1c-0.3,0.7-0.8,1.2-1.2,1.7c-0.2,0.3-0.3,0.4,0,0.7c0.8,0.6,1.6,1.3,2.4,2
	c0.2,0.1,0.3,0.3,0.5,0.3c0.2,0,1.5-1.9,1.5-2.1C35.6,30.9,35.5,30.8,35.5,30.7z M36.8,19.2c0.6,0.1,1.1,0.2,1.7,0.4
	c1.7,0.4,1.8,0.3,2.1-1.4c0.1-0.4,0-0.6-0.4-0.8c-1-0.4-1.9-0.8-2.9-1.3c-0.4-0.2-0.6-0.1-0.6,0.3c-0.1,0.7-0.2,1.4-0.4,2.1
	C36.2,18.9,36.4,19.1,36.8,19.2z M11.4,29.1c-0.4,0.1-0.9,0.1-1.3,0.2c-1.3,0.2-1.3,0.2-1.3,1.6c0,0.4,0.1,0.8,0,1.2
	c-0.1,0.8,0.3,0.8,0.9,0.5c0.9-0.4,1.6-1,2.5-1.2c0.5-0.1,0.8-0.4,0.6-0.9C12.9,28.9,12.9,28.9,11.4,29.1z M40.5,12.8
	c-2-1.3-2-1.3-3.1,0.8c0,0,0,0.1-0.1,0.1c-0.2,0.4-0.2,0.6,0.2,0.8c0.9,0.4,1.8,0.9,2.6,1.3c0.2,0.1,0.4,0.2,0.5,0
	c0.4-0.7,0.7-1.3,1-2.2C41.5,13.2,41,13,40.5,12.8z M44.9,8.7c1.1-0.4,1.4-1.4,0.8-2.4c-0.2-0.3-0.4-0.7-0.6-1
	c-0.5-0.5-0.5-1.7-1.3-1.6c-0.6,0.1-1,1.1-1.5,1.7c-0.2,0.2-0.2,0.4,0,0.6c0.7,0.8,1.4,1.7,2.1,2.5c0.1,0.1,0.2,0.2,0.3,0.3
	C44.8,8.8,44.9,8.8,44.9,8.7z M24.4,27.8c-0.6-0.2-1.2-0.4-1.7-0.6c-1.7-0.6-1.6-0.6-2.3,1c-0.2,0.4-0.1,0.6,0.2,0.8
	c0.8,0.5,1.6,1,2.4,1.5c0.1,0.1,0.3,0.3,0.5,0.1c0.5-0.8,1-1.6,1.3-2.6C24.9,27.9,24.6,27.9,24.4,27.8z M43.5,9.7
	c-0.5-0.4-1-0.8-1.5-1.2c-1.2-1-1.2-1-2.1,0.3c-0.4,0.6-0.6,1.1,0.2,1.6c0.5,0.3,0.9,0.8,1.3,1.1c0.3,0.2,0.6,0.8,1,0.4
	c0.6-0.5,1.1-1.1,1.5-1.9C43.9,9.9,43.7,9.8,43.5,9.7z M48.8,27.7c-0.5-0.5-0.9-0.9-1.4-1.4c-1-1-1-1-1.9,0.1
	c-0.2,0.3-0.5,0.5-0.2,0.9c0.4,0.6,0.7,1.3,1.1,1.9c0.8,1.3,0.8,1.3,1.8,0.2c0.4-0.4,0.7-0.9,1-1.4C49.1,27.9,48.9,27.8,48.8,27.7z
	 M21.5,34.5c0.9-1,0.9-2.2-0.1-3.1c-0.1-0.1-0.2-0.2-0.3-0.3c-1.6-1.4-1.6-1.4-2.6,0.5c-0.2,0.5-0.1,0.7,0.2,1
	c0.7,0.6,1.4,1.2,2.2,1.7c0.1,0.1,0.2,0.2,0.4,0.3C21.3,34.6,21.4,34.6,21.5,34.5z M42.8,36.2c-0.8-0.8-1.8-1.4-2.7-2
	c-0.2-0.1-0.3,0-0.5,0.1c-1.1,1.2-1.1,1.8,0.1,2.8c0.4,0.4,0.8,0.7,1.3,1.1c0.1,0.1,0.4,0.3,0.4,0.3c0.5-0.7,1-1.4,1.5-2.1
	C42.9,36.4,42.9,36.3,42.8,36.2z M22.2,25.6c0.3,0.1,0.6,0.2,1,0.3c2.3,0.8,2.2,0.7,3-1.5c0.2-0.7,0-0.8-0.6-0.8
	c-0.8,0-1.7,0-2.5-0.1c-0.7-0.1-1.1,0.2-1.1,0.9c0,0.2-0.1,0.4-0.1,0.7C21.7,25.4,21.9,25.5,22.2,25.6z M48.2,22.2
	c-0.3,0.4-0.7,0.9-0.8,1.3c-0.1,0.4,0.5,0.6,0.8,0.8c0.4,0.4,0.8,0.8,1.2,1.1c1.3,1.1,1.3,1,2.2-0.4c0.4-0.7,0.5-1.1-0.4-1.5
	c-0.8-0.3-1.5-0.8-2.2-1.2c-0.2-0.1-0.3-0.2-0.5-0.3C48.4,22.1,48.2,22.1,48.2,22.2z M55.1,11.6c-0.7-0.1-1.3-0.2-2-0.3
	c-0.5-0.1-1.3,0.7-1.2,1.2c0.1,1.2,2.2,2.4,3.3,2c0.2-0.1,0.3-0.2,0.4-0.4c0.2-0.5,0.3-0.9,0.3-1.4C55.9,12,55.7,11.6,55.1,11.6z
	 M25.1,19.1c-0.6,0.1-1.2,0.1-1.7,0.2c-0.3,0-0.5,0.1-0.6,0.5c-0.2,1.2,0.1,1.8,1.4,2c0.5,0.1,0.9,0.1,1.4,0.2
	c0.8,0.2,1.1-0.1,1.1-0.8c0-0.2,0-0.4,0-0.6C26.7,19.1,26.6,19,25.1,19.1z M11.2,42.6c0.6,0,0.8-0.3,0.8-0.9c0-1.7,0-1.7-1.7-1.8
	c-0.2,0-0.5,0-0.7,0c-1-0.2-1.3,0.2-1.2,1.2c0,1.6,0,1.6,1.6,1.6C10.3,42.7,10.8,42.6,11.2,42.6z M8.8,27.2c0,0.3,0.1,0.5,0.5,0.5
	c1-0.2,1.9-0.4,2.9-0.7c0.8-0.2,0.3-0.9,0.4-1.3c0.1-0.3,0-0.6-0.3-0.5c-0.7,0-1.3-0.4-2-0.4c-1.5-0.1-1.5-0.1-1.5,1.4
	C8.8,26.4,8.9,26.8,8.8,27.2z M51.9,15.3c-0.4,0.1-0.9,1.9-0.6,2.2c0.8,0.8,1.9,1.3,2.9,1.3c0.5,0,0.4-1.3,0.7-1.9
	c0-0.1,0-0.2,0.1-0.3c0-0.2,0-0.4-0.3-0.4c-0.9-0.3-1.8-0.5-2.6-0.8C52,15.3,51.9,15.3,51.9,15.3z M18.6,40.2
	c-1.4,0.1-1.4,0.1-1.4,1.5c0,0.5,0.2,0.8,0.7,0.8c0.8,0,1.5,0.2,2.3,0.3c0.2,0,0.5,0.2,0.6-0.1c0.2-0.8,0.1-1.6-0.1-2.4
	c-0.1-0.5-0.8-0.1-1.1-0.2C19.2,40.2,18.9,40.1,18.6,40.2z M52.8,22.3c0.3-0.6,0.8-1.3,0.9-2c0-0.3-0.8-0.4-1.2-0.6
	c-0.5-0.2-1-0.3-1.4-0.6c-0.8-0.4-1.1-0.3-1.4,0.6c-0.2,0.6-0.2,1,0.5,1.3c0.2,0.1,0.5,0.3,0.7,0.4c0.6,0.4,1.2,0.7,1.8,1.1
	C52.7,22.4,52.8,22.3,52.8,22.3z M15.7,14.9c-0.8-0.7-1.5-1.3-2.3-2c-0.1-0.1-0.3-0.2-0.4-0.1c-0.5,0.5-0.9,1.2-1.1,1.9
	c-0.1,0.4,0.5,0.5,0.8,0.8c0.5,0.4,1.1,0.8,1.6,1.2c0.1,0.1,0.4,0.3,0.5,0.2c0.4-0.5,0.7-1.1,1.1-1.7C15.8,15,15.8,14.9,15.7,14.9z
	 M12.7,21.9c-0.5-0.3-1-0.6-1.6-0.9c-1.4-0.7-1.4-0.7-1.7,0.9c-0.2,0.9,0,1.4,1,1.5c0.4,0,0.7,0.2,1.1,0.3c1.4,0.4,1.4,0.4,1.5-1.1
	C12.9,22.3,13,22,12.7,21.9z M14.1,18.4c-0.9-0.6-1.7-1.1-2.6-1.7c-0.2-0.1-0.3-0.1-0.4,0.1c-0.2,0.7-0.5,1.3-0.7,2
	c-0.1,0.3,0.2,0.3,0.4,0.4c0.8,0.4,1.5,0.7,2.3,1c0.2,0.1,0.4,0.3,0.6,0c0.3-0.5,0.5-1,0.7-1.5C14.2,18.6,14.2,18.5,14.1,18.4z
	 M33,34.8c0.5-0.5,0.4-0.8-0.2-1.1c-0.5-0.3-0.9-0.7-1.5-1c-0.5-0.2-0.7-1.1-1.3-0.9c-0.4,0.2-0.6,0.9-1,1.3
	c-0.3,0.4-0.3,0.6,0.2,0.8c0.8,0.4,1.6,0.9,2.4,1.4c0.2,0.1,0.4,0.2,0.5,0.3C32.7,35.5,32.8,35.1,33,34.8z M40.7,39.6
	c-0.6-0.9-1.5-1.4-2.3-2.1c-0.2-0.1-0.4-0.6-0.6-0.2c-0.3,0.4-1,0.8-0.6,1.4c0.6,0.9,1.4,1.8,2.2,2.6c0.1,0.1,0.2,0.3,0.3,0.2
	c0.5-0.5,0.9-1,1.3-1.5C41,39.8,40.8,39.7,40.7,39.6z M25.8,17.4c0.2,0,0.5,0.1,0.5-0.2c0.1-0.8,0.1-1.5-0.2-2.3
	c-0.1-0.4-0.4-0.2-0.6-0.2c-0.8,0.2-1.6,0.4-2.4,0.7c-0.2,0.1-0.5,0.1-0.5,0.4c-0.1,1.1,0.2,1.6,1.3,1.6c0.2,0,0.4,0,0.6,0
	C24.9,17.4,25.4,17.5,25.8,17.4z M47,16.2c0.3,1.2,0.7,2.3,1.4,3.5c0.5-0.7,0.9-1.3,1.2-1.9c0.2-0.3,0.3-0.6,0-0.9
	c-0.6-0.8-1.1-1.5-1.8-2.4C47.5,15.2,46.8,15.7,47,16.2z M18.3,22.3c-0.1,0.2-0.2,0.4,0,0.6c0.7,0.9,1.5,1.9,2.3,2.9
	c0.2-0.8,1-1.5,0.6-2.2c-0.6-1-1.4-1.9-2.1-3.1C18.7,21.2,18.5,21.7,18.3,22.3z M31.1,37.3c0.3,0.1,0.6-0.1,0.7-0.3
	c0.2-0.4-0.2-0.4-0.4-0.6c-0.5-0.4-0.9-0.8-1.4-1.1c-1.7-1.1-1.9-1-2.2,1c-0.1,0.5,0,0.7,0.6,0.8c0.8,0,1.7,0.1,2.7,0.2
	C30.9,37.3,31,37.3,31.1,37.3z M15.1,21c-0.6,0.3-1.2,1.6-0.9,2.2c0.1,0.1,0.1,0.2,0.3,0.2c0.9-0.4,2-0.6,2.8-1.2
	c0.6-0.4,0.4-1.4,0.6-2.3C16.8,20.3,15.9,20.6,15.1,21z M38.6,43c0.4-0.5,0.4-0.7-0.1-1.1c-0.6-0.5-1.2-1-1.9-1.5
	c-0.2-0.1-0.4-0.5-0.6-0.2c-0.2,0.2-0.6,0.5-0.4,1c0.5,1,0.9,2,1.4,3.1C37.7,43.7,38.2,43.4,38.6,43z M39.3,22.6
	c0.8-0.1,0.7-0.7,0.8-1.2c0.2-0.5-0.4-0.4-0.7-0.5c-0.9-0.1-1.8-0.3-2.7-0.4c-0.3,0-0.4-0.1-0.5,0.3c-0.2,1.2,0,1.6,1.2,1.7
	c0.4,0,0.7,0.1,1.2,0.1C38.8,22.6,39,22.6,39.3,22.6z M46.5,23c0.3-0.4,0.5-0.8,0.7-1.2c0.2-0.4,0.5-0.7,0.3-1.2
	c-0.4-0.9-0.8-1.7-1.2-2.6C45,20.2,45.1,21.2,46.5,23z M8.6,46.9c-0.5,0-0.4,0.5-0.3,0.8c0.1,0.5,0,1.1,0.5,1.5c0,0,0.2,0,0.3-0.1
	c0.8-0.4,1.7-0.8,2.5-1.3c0.5-0.3,0.3-0.8,0.2-1.2c0-0.4-0.4-0.2-0.7-0.3C10.3,46.5,9.5,46.9,8.6,46.9z M8.9,45.8
	c0.7-0.1,1.3-0.3,2-0.3c1-0.1,0.9-0.8,0.9-1.4c-0.1-0.8-0.6-0.3-1-0.3c-0.4,0-0.9,0-1.3,0c-1.3,0.1-1.3,0.1-1.3,1.4
	C8.2,45.9,8.2,45.9,8.9,45.8z M14,27c1.7-0.6,3.2-1.3,2.7-3.6C13.4,25,13.8,24.5,14,27z M15.3,19.2c2.7-0.4,3.2-0.8,3.5-3
	C16.5,16.4,16,16.8,15.3,19.2z M48.3,12.4c0.5,1.1,0.9,2.2,1.7,3.2c0.3-0.8,1.2-1.2,0.8-2.1c-0.5-0.9-1-1.8-1.6-2.8
	C48.8,11.4,48.1,11.8,48.3,12.4z M21.7,20c-0.6-1.1-1.3-2.2-2-3.3c-0.6,1.2-0.8,2.2,0.2,3.2c0.5,0.5,1,1.2,1.4,1.9
	C21.4,21.1,22,20.5,21.7,20z M18.3,44.2c-0.1,0-0.2,0-0.3,0c-0.3,0.1-0.9-0.4-1,0.4c-0.1,0.7,0.2,0.9,0.8,1c0.5,0.1,1.1,0.2,1.6,0.3
	c1.4,0.3,1.4,0.3,1.2-1.1c-0.1-0.6-0.5-0.4-0.8-0.5C19.3,44.2,18.8,44.2,18.3,44.2C18.3,44.2,18.3,44.2,18.3,44.2z M20.1,47.5
	c-0.9-0.2-1.7-0.4-2.6-0.5c-0.2,0-0.6-0.3-0.7,0.2c-0.1,0.4,0,0.6,0.3,0.8c0.6,0.3,1.2,0.7,1.8,1.1c1.3,0.7,1.3,0.7,1.5-0.7
	c0-0.1,0-0.2,0-0.1C20.6,47.6,20.4,47.6,20.1,47.5z M45.2,15.9c0.3-0.1,0.5-0.2,0.5-0.6c-0.1-0.5,0-1.1-0.3-1.6c0,0-0.2,0-0.3,0
	c-1.3,0.3-2.2,1.3-2.5,2.9C43.5,16.4,44.4,16.1,45.2,15.9z M47.7,10.6c-0.2-0.1-0.4,0-0.6,0.1c-0.6,0.1-1.3,0.1-1.9,0.2
	c-0.3,0-0.6,0.1-0.6,0.4c-0.1,0.5-0.3,0.9-0.2,1.5c0.7-0.2,1.4-0.5,2-0.6c0.8-0.2,1.3-0.6,1.5-1.3C48,10.7,47.9,10.7,47.7,10.6z
	 M13.9,28.9c-0.7,0.5-0.4,1.1-0.4,1.7c0,0.2,0.2,0.2,0.3,0.1c1.2-0.4,2.2-1.7,2.1-3C15.1,28,14.5,28.4,13.9,28.9z M44.7,25.5
	c0.7-0.6,0.9-1.2,0.4-2.1c-0.4-0.6-0.6-1.2-1-1.9C43.2,23.1,43.3,24,44.7,25.5z M44,19.1c0.5-0.2,0.5-0.7,0.6-1.2
	c0.1-0.2-0.2-0.2-0.3-0.2c-1.8-0.2-2.3,0.1-2.8,1.9C42.3,19.5,43.2,19.4,44,19.1z M18.9,28c0.1,0.1,0.2,0.3,0.4,0.1
	c0.6-0.5,0.6-1.1,0.1-1.7c-0.5-0.6-1-1.1-1.6-1.8C17.6,26.3,17.8,26.9,18.9,28z M17.7,28.7c-0.1-0.1-0.1-0.4-0.4-0.4
	c-0.7,1.4-0.7,1.5,0.1,2.8C18.9,30,18.9,30,17.7,28.7z M50.7,10.6c0.2,0.2,0.5,0.2,0.7,0.1c0.3-0.1,0.2-0.3,0.1-0.5
	c-0.3-0.8-0.5-1.6-0.8-2.5C49.9,8.5,50,10,50.7,10.6z M21.5,16.9c0.2-1.4-0.6-2.4-1-3.7C19.8,14.8,19.8,14.8,21.5,16.9z M17.1,15.1
	c1.9-0.1,2.2-0.5,2.1-2.4C18.2,13.4,17.7,14.2,17.1,15.1z M36.6,35.2c-0.2,0.3,0.1,0.6,0.3,0.8c0.2,0.3,0.4,0.1,0.5-0.1
	c0.3-0.5,0.9-0.7,1.3-1.1C37.9,34.2,37,34.4,36.6,35.2z M34.9,33.7c-0.3,0.5,0.2,0.9,0.5,1.1c0.3,0.2,0.4-0.3,0.5-0.5
	c0.4-0.6,0.1-1.2,0.2-2C35.5,32.7,35.2,33.2,34.9,33.7z M15.1,43.2c0,0.4,0.2,0.6,0.6,0.3c0.9-0.7,1-1.1,0.6-2.3
	C15.8,41.8,15,42.2,15.1,43.2z M41.2,23.6c0.4-0.5,0.8-1.1,1.2-1.6c0.2-0.3,0.1-0.4-0.2-0.5c-0.6-0.1-1,0-1.1,0.7
	c0,0.4-0.1,0.9-0.1,1.3C41,23.6,41.1,23.6,41.2,23.6z M14.2,43.3c0.3-1.1-0.5-1.7-1.2-2.5C12.9,42.3,13.2,42.8,14.2,43.3z
	 M34.5,36.1c0-0.1,0-0.2,0-0.4c0-0.3-0.1-0.6-0.5-0.6c-0.5,0-0.4,0.4-0.4,0.7c0,0.3,0,0.6,0,0.8c0,0.2,0,0.5,0.3,0.4
	c0.2-0.1,0.5,0,0.6-0.4C34.5,36.5,34.5,36.3,34.5,36.1C34.5,36.1,34.5,36.1,34.5,36.1z M34.9,40.3c0.5-0.1,0.4-0.4,0.3-0.8
	c-0.1-0.5-0.5-0.4-0.7-0.2c-0.3,0.3-0.8,0.3-1.2,0.6C33.8,40.5,34,40.5,34.9,40.3z M49.4,7.4c-1.2,0.1-2.2,0.5-2.9,1.4
	C47.4,8.3,48.7,8.7,49.4,7.4z M16,44.3c-0.5,0.2-1,0.5-1,1.2c0,0.2,0.1,0.4,0.3,0.3c0.4-0.2,1-0.1,1-0.8
	C16.2,44.8,16.4,44.2,16,44.3z M35.3,37.7c0,0.2,0.2,0.7,0.4,0.6c0.3-0.1,0.8-0.2,0.8-0.7c0-0.2-0.1-0.5-0.5-0.6
	C35.8,37.2,35.3,37.2,35.3,37.7z M12.9,46.8c-0.4,1,0.4,1.2,1,1.8C14.1,47.6,13.5,47.2,12.9,46.8z M16,46.8c-0.5,0.5-1.2,0.7-1,1.7
	C15.7,48.1,16.6,47.9,16,46.8z M32.7,37.7c-0.2,0-0.5,0.2-0.4,0.5c0.1,0.3,0,0.9,0.6,0.8c0.2,0,0.4-0.1,0.2-0.4
	C33.1,38.3,33.2,37.8,32.7,37.7z M13.5,44.4c-0.1-0.2-0.3,0-0.3,0.1c-0.3,0.6,0.3,0.7,0.5,1c0.1,0.1,0.2,0.1,0.3,0.2
	C14.3,45.1,13.8,44.8,13.5,44.4z M13.9,50c0.3,0.6,0.6,0.6,1,0C14.5,50,14.2,50,13.9,50z M47.7,10.4c-0.3,0-0.5,0-0.6,0.3
	c0.2,0,0.4,0,0.6,0C47.8,10.6,47.8,10.5,47.7,10.4z M47.9,10.9c0.3-0.3,0.2-0.5-0.2-0.6c0,0.1,0,0.2,0,0.3
	C47.8,10.8,47.8,10.8,47.9,10.9z M142.5,27.1c0-0.6-0.1-0.9-0.8-0.9c-1.1,0.1-2.3,0.1-3.4,0c-0.7,0-0.9,0.2-0.9,0.9
	c0,3.8,0,7.6,0,11.3c0,2.8,0,5.5,0,8.3c0,0.6,0.2,0.8,0.8,0.8c0.9,0,1.8-0.1,2.7,0c0.9,0,1.6,0,1.6-1.2c1.2,1.5,2.6,1.9,4.3,1.4
	c1.7-0.5,2.2-1.9,2.2-3.5c0.1-1.4,0-2.8,0-4.3c0-2.4,0-4.7,0-7.1c-0.1-2-1.2-2.9-3.1-3c-1.2-0.1-2.3,0.3-3.4,1.3
	C142.5,29.6,142.4,28.4,142.5,27.1z M142.5,38.8c0-1.6,0-3.2,0-4.7c0-0.5,0-1,0.7-1c0.7,0,0.7,0.5,0.7,1c0.2,1.8,0.1,3.5,0.1,5.3
	c0,1.4,0,2.8,0,4.3c0,0.5,0.1,1.2-0.7,1.2c-0.7,0-0.7-0.7-0.7-1.2C142.5,41.9,142.5,40.3,142.5,38.8
	C142.5,38.8,142.5,38.8,142.5,38.8z M234.9,46.4c1,1.3,2.4,1.8,3.8,1.4c1.4-0.4,2.2-1.2,2.3-3c0.3-4.1,0.3-8.2,0-12.2
	c-0.1-1.6-1.3-2.6-2.9-2.7c-1.4-0.1-2.4,0.4-3.3,1.4c-0.3-0.4,0.3-1.2-0.7-1.2c-1.3,0-2.7,0-4,0c-0.5,0-0.6,0.2-0.6,0.7
	c0,6.2,0,12.4,0,18.6c0,0.5,0.2,0.6,0.6,0.6c1.3,0,2.5,0,3.8,0c0.5,0,0.7-0.2,0.7-0.7c0-1,0-1.9,0-3
	C234.8,46.4,234.8,46.4,234.9,46.4z M236.1,38.8c-0.1,1.7,0.1,3.4-0.1,5.1c0,0.4-0.1,0.8-0.7,0.8c-0.5,0-0.6-0.4-0.7-0.8
	c-0.2-3.4-0.2-6.7,0-10.1c0-0.5,0.2-0.8,0.7-0.8c0.5,0,0.6,0.3,0.6,0.7C236.2,35.4,236,37.1,236.1,38.8z M128.2,30.1
	c-1.1,0-2.2,0-3.3,0c-0.6,0-0.7,0.1-0.7,0.7c0,6.1,0,12.3,0,18.4c0,0.6,0.2,0.8,0.8,0.8c1.1,0,2.2-0.1,3.3,0c0.8,0,1-0.2,1-1
	c0-0.9-0.1-1.8,0.1-2.8c1.2,1.5,2.6,2,4.2,1.5c1.6-0.5,2.1-1.7,2.2-3.2c0.2-4,0.2-8,0-12c-0.1-1.7-1.3-2.7-2.9-2.7
	c-1.3-0.1-2.4,0.5-3.4,1.5C129.3,30.1,129.3,30.1,128.2,30.1z M130.7,38.9c-0.1,1.7,0.1,3.3-0.1,5c0,0.4-0.1,0.8-0.7,0.8
	c-0.5,0-0.7-0.4-0.7-0.8c-0.2-3.4-0.2-6.7,0-10.1c0-0.5,0.2-0.8,0.7-0.8c0.6,0,0.6,0.4,0.6,0.8C130.8,35.5,130.6,37.2,130.7,38.9z
	 M204.4,47.6c1-0.1,2,0,3.1,0c0.5,0,0.7-0.1,0.7-0.7c0-4.3,0.1-8.5-0.2-12.8c-0.1-2.4-1.2-3.6-3.5-4.1c-1.2-0.3-2.4-0.3-3.6-0.1
	c-1.7,0.3-3.1,1-3.7,2.8c-0.4,1.2-0.4,2.5-0.4,3.8c0,0.5,0.3,0.4,0.6,0.4c1.2,0,2.4,0,3.5,0c0.6,0,0.7-0.2,0.7-0.7
	c0-0.8,0-1.6,0-2.4c0-0.4,0.1-0.8,0.7-0.8c0.5,0,0.7,0.4,0.8,0.8c0.1,0.5,0,1,0.1,1.5c0.1,1-0.3,1.6-1.3,2c-1.2,0.4-2.3,1-3.4,1.5
	c-0.9,0.4-1.4,1.1-1.5,2.1c-0.3,1.5-0.2,3.1,0,4.6c0.1,0.7,0.3,1.3,0.9,1.8c1.7,1.3,4,0.9,5.4-0.8C203,47.4,203.5,47.6,204.4,47.6z
	 M203.1,39.5c0,1.5,0,2.9,0,4.3c0,0.5-0.1,0.9-0.7,0.9c-0.6,0-0.8-0.4-0.8-0.9c0-1.4-0.5-3,1-4.1C202.7,39.7,202.8,39.6,203.1,39.5z
	 M88.1,47.6c1-0.1,1.9-0.1,2.9,0c0.6,0,0.8-0.2,0.8-0.8c0-3.1,0-6.1,0-9.2c0-1.4,0-2.8-0.2-4.3c-0.3-1.5-1.1-2.6-2.6-3.1
	c-1.7-0.6-3.5-0.6-5.3-0.1c-1.3,0.4-2.4,1.1-2.9,2.5c-0.4,1.3-0.4,2.6-0.4,3.9c0,0.4,0.3,0.4,0.6,0.4c1.2,0,2.4,0,3.6,0
	c0.5,0,0.6-0.2,0.6-0.6c0-0.9,0-1.7,0-2.6c0-0.4,0.1-0.7,0.6-0.7c0.4,0,0.6,0.2,0.8,0.5c0.2,0.6,0.1,1.3,0.1,1.9
	c0.1,0.8-0.3,1.3-1,1.6c-1.2,0.5-2.4,1.1-3.7,1.6c-0.8,0.4-1.3,1-1.4,1.9c-0.3,1.6-0.3,3.3,0,4.9c0.1,0.6,0.3,1.1,0.8,1.6
	c1.6,1.4,4.2,1.1,5.5-0.7C86.6,47.5,87.2,47.6,88.1,47.6z M86.7,39.5c0,1.5,0,2.9,0,4.2c0,0.5,0,1-0.7,1c-0.7,0-0.8-0.5-0.8-1
	c0-0.6,0-1.3,0-1.9C85.2,40.7,85.7,40.1,86.7,39.5z M175,38.8c0-1.4,0.1-2.7,0-4.1c-0.2-2.6-1.5-4.2-3.9-4.7
	c-0.9-0.2-1.8-0.2-2.8-0.2c-2.5,0.1-4.3,1.6-4.6,4.1c-0.4,3.3-0.4,6.7,0,10c0.2,1.9,1.4,3.4,3.3,3.7c1,0.2,2,0.3,3.1,0.2
	c2.9-0.2,4.8-2.1,4.9-5C175,41.5,175,40.2,175,38.8C175,38.8,175,38.8,175,38.8z M170,38.9c0,1.5,0,3,0,4.4c0,0.3-0.1,0.7-0.1,1
	c-0.1,0.3-0.3,0.4-0.6,0.4c-0.3,0-0.5-0.2-0.5-0.5c0-0.2-0.1-0.4-0.1-0.5c-0.1-3.3-0.2-6.5,0-9.8c0-0.4,0-0.9,0.7-0.9
	c0.6,0,0.6,0.5,0.6,0.9C170,35.6,170,37.2,170,38.9C170,38.9,170,38.9,170,38.9z M162,34.9c-0.2-2.7-1.4-4.3-4-4.9
	c-0.9-0.2-1.7-0.2-2.6-0.2c-2.6,0.1-4.4,1.5-4.7,4.2c-0.4,3.1-0.3,6.3-0.1,9.5c0.2,2.5,1.4,3.8,3.4,4.2c1.1,0.2,2.1,0.3,3.2,0.2
	c2.6-0.2,4.4-2,4.7-4.4c0.2-1.5,0.1-3.1,0.1-4.6C162,37.5,162.1,36.2,162,34.9z M156.9,38.9c0,1.5,0,3,0,4.4c0,0.3-0.1,0.7-0.1,1
	c-0.1,0.3-0.3,0.4-0.6,0.4c-0.3,0-0.5-0.1-0.6-0.4c-0.1-0.4-0.2-0.8-0.2-1.2c0-2.9,0-5.7,0-8.6c0-0.6-0.2-1.5,0.8-1.5
	c0.9,0,0.6,0.9,0.7,1.5C157,36,156.9,37.4,156.9,38.9z"/>
</svg>
